  0
SECTION
  2
HEADER
  9
$ACADVER
  1
AC1009
  9
$DWGCODEPAGE
  3
ansi_1252
  9
$INSBASE
 10
0.0
 20
0.0
 30
0.0
  9
$EXTMIN
 10
0.0910883827157214
 20
0.0
 30
0.0
  9
$EXTMAX
 10
17.09108869059483
 20
34.99999994368065
 30
0.0
  9
$LIMMIN
 10
0.0
 20
0.0
  9
$LIMMAX
 10
11.0
 20
8.5
  9
$ORTHOMODE
 70
     0
  9
$REGENMODE
 70
     1
  9
$FILLMODE
 70
     1
  9
$QTEXTMODE
 70
     0
  9
$MIRRTEXT
 70
     1
  9
$DRAGMODE
 70
     2
  9
$LTSCALE
 40
1.0
  9
$OSMODE
 70
     1
  9
$ATTMODE
 70
     1
  9
$TEXTSIZE
 40
0.1377952755905512
  9
$TRACEWID
 40
0.05
  9
$TEXTSTYLE
  7
STANDARD
  9
$CLAYER
  8
0
  9
$CELTYPE
  6
BYLAYER
  9
$CECOLOR
 62
   256
  9
$DIMSCALE
 40
1.0
  9
$DIMASZ
 40
0.13
  9
$DIMEXO
 40
0.0393700787401575
  9
$DIMDLI
 40
0.38
  9
$DIMRND
 40
0.0
  9
$DIMDLE
 40
0.0
  9
$DIMEXE
 40
0.0393700787401575
  9
$DIMTP
 40
0.0
  9
$DIMTM
 40
0.0
  9
$DIMTXT
 40
0.1377952755905512
  9
$DIMCEN
 40
0.09
  9
$DIMTSZ
 40
0.0
  9
$DIMTOL
 70
     0
  9
$DIMLIM
 70
     0
  9
$DIMTIH
 70
     1
  9
$DIMTOH
 70
     1
  9
$DIMSE1
 70
     0
  9
$DIMSE2
 70
     0
  9
$DIMTAD
 70
     1
  9
$DIMZIN
 70
     0
  9
$DIMBLK
  1

  9
$DIMASO
 70
     1
  9
$DIMSHO
 70
     1
  9
$DIMPOST
  1

  9
$DIMAPOST
  1

  9
$DIMALT
 70
     0
  9
$DIMALTD
 70
     2
  9
$DIMALTF
 40
25.4
  9
$DIMLFAC
 40
1.0
  9
$DIMTOFL
 70
     0
  9
$DIMTVP
 40
0.0
  9
$DIMTIX
 70
     0
  9
$DIMSOXD
 70
     0
  9
$DIMSAH
 70
     0
  9
$DIMBLK1
  1

  9
$DIMBLK2
  1

  9
$DIMSTYLE
  2
STANDARD
  9
$DIMCLRD
 70
     0
  9
$DIMCLRE
 70
     0
  9
$DIMCLRT
 70
     0
  9
$DIMTFAC
 40
1.0
  9
$DIMGAP
 40
0.06
  9
$LUNITS
 70
     2
  9
$LUPREC
 70
     2
  9
$SKETCHINC
 40
0.1
  9
$FILLETRAD
 40
0.5
  9
$AUNITS
 70
     0
  9
$AUPREC
 70
     2
  9
$MENU
  1
.
  9
$ELEVATION
 40
0.0
  9
$PELEVATION
 40
0.0
  9
$THICKNESS
 40
0.0
  9
$LIMCHECK
 70
     0
  9
$CHAMFERA
 40
0.0
  9
$CHAMFERB
 40
0.0
  9
$SKPOLY
 70
     0
  9
$TDCREATE
 40
2458141.563368496
  9
$TDUPDATE
 40
2458143.428556343
  9
$TDINDWG
 40
0.0073466551
  9
$TDUSRTIMER
 40
2458143.62947287
  9
$USRTIMER
 70
     1
  9
$ANGBASE
 50
0.0
  9
$ANGDIR
 70
     0
  9
$PDMODE
 70
     0
  9
$PDSIZE
 40
-1.0
  9
$PLINEWID
 40
0.0
  9
$COORDS
 70
     1
  9
$SPLFRAME
 70
     0
  9
$SPLINETYPE
 70
     6
  9
$SPLINESEGS
 70
     8
  9
$ATTDIA
 70
     0
  9
$ATTREQ
 70
     1
  9
$HANDLING
 70
     1
  9
$HANDSEED
  5
4FB
  9
$SURFTAB1
 70
     6
  9
$SURFTAB2
 70
     6
  9
$SURFTYPE
 70
     6
  9
$SURFU
 70
     6
  9
$SURFV
 70
     6
  9
$UCSNAME
  2

  9
$UCSORG
 10
0.0
 20
0.0
 30
0.0
  9
$UCSXDIR
 10
1.0
 20
0.0
 30
0.0
  9
$UCSYDIR
 10
0.0
 20
1.0
 30
0.0
  9
$PUCSNAME
  2

  9
$PUCSORG
 10
0.0
 20
0.0
 30
0.0
  9
$PUCSXDIR
 10
1.0
 20
0.0
 30
0.0
  9
$PUCSYDIR
 10
0.0
 20
1.0
 30
0.0
  9
$USERI1
 70
     0
  9
$USERI2
 70
     0
  9
$USERI3
 70
     0
  9
$USERI4
 70
     0
  9
$USERI5
 70
     0
  9
$USERR1
 40
0.0
  9
$USERR2
 40
0.0
  9
$USERR3
 40
0.0
  9
$USERR4
 40
0.0
  9
$USERR5
 40
0.0
  9
$WORLDVIEW
 70
     1
  9
$SHADEDGE
 70
     3
  9
$SHADEDIF
 70
    70
  9
$TILEMODE
 70
     1
  9
$MAXACTVP
 70
    64
  9
$PLIMCHECK
 70
     0
  9
$PEXTMIN
 10
1.000000000000000E+20
 20
1.000000000000000E+20
 30
1.000000000000000E+20
  9
$PEXTMAX
 10
-1.000000000000000E+20
 20
-1.000000000000000E+20
 30
-1.000000000000000E+20
  9
$PLIMMIN
 10
0.0
 20
0.0
  9
$PLIMMAX
 10
0.0
 20
0.0
  9
$UNITMODE
 70
     0
  9
$VISRETAIN
 70
     1
  9
$PLINEGEN
 70
     0
  9
$PSLTSCALE
 70
     1
  0
ENDSEC
  0
SECTION
  2
TABLES
  0
TABLE
  2
VPORT
 70
     1
  0
VPORT
  2
*ACTIVE
 70
     0
 10
0.0
 20
0.0
 11
1.0
 21
1.0
 12
8.591088536655278
 22
17.49999997184032
 13
0.0
 23
0.0
 14
0.5
 24
0.5
 15
0.5
 25
0.5
 16
0.0
 26
0.0
 36
1.0
 17
0.0
 27
0.0
 37
0.0
 40
35.69999994255426
 41
2.040241448692153
 42
50.0
 43
0.0
 44
0.0
 50
0.0
 51
0.0
 71
    16
 72
  2000
 73
     1
 74
     2
 75
     0
 76
     0
 77
     0
 78
     0
  0
ENDTAB
  0
TABLE
  2
LTYPE
 70
     6
  0
LTYPE
  2
CONTINUOUS
 70
     0
  3
Solid line
 72
    65
 73
     0
 40
0.0
  0
LTYPE
  2
HIDDEN
 70
     0
  3
Hidden __ __ __ __ __ __ __ __ __ __ __ __ __ __
 72
    65
 73
     2
 40
0.075
 49
0.05
 49
-0.025
  0
LTYPE
  2
PHANTOM
 70
     0
  3
Phantom ______  __  __  ______  __  __  ______
 72
    65
 73
     6
 40
0.5
 49
0.25
 49
-0.05
 49
0.05
 49
-0.05
 49
0.05
 49
-0.05
  0
LTYPE
  2
CENTER
 70
     0
  3
Center ____ _ ____ _ ____ _ ____ _ ____ _ ____
 72
    65
 73
     4
 40
0.4
 49
0.25
 49
-0.05
 49
0.05
 49
-0.05
  0
LTYPE
  2
CENTERX2
 70
     0
  3
Center (2x) ________  __  ________  __  _____
 72
    65
 73
     4
 40
0.8
 49
0.5
 49
-0.1
 49
0.1
 49
-0.1
  0
LTYPE
  2
DOT2
 70
     0
  3
Dot (.5x) ......................................
 72
    65
 73
     2
 40
0.025
 49
0.0
 49
-0.025
  0
ENDTAB
  0
TABLE
  2
LAYER
 70
     5
  0
LAYER
  2
0
 70
     0
 62
     7
  6
CONTINUOUS
  0
LAYER
  2
FORMAT
 70
     0
 62
     7
  6
CONTINUOUS
  0
LAYER
  2
HOLES
 70
     0
 62
     1
  6
CONTINUOUS
  0
LAYER
  2
BENZENE
 70
     0
 62
     3
  6
CONTINUOUS
  0
LAYER
  2
SM_HOLE
 70
     0
 62
     2
  6
CONTINUOUS
  0
ENDTAB
  0
TABLE
  2
STYLE
 70
     1
  0
STYLE
  2
STANDARD
 70
     0
 40
0.0
 41
1.0
 50
0.0
 71
     0
 42
0.1377952755905512
  3
txt
  4

  0
ENDTAB
  0
TABLE
  2
VIEW
 70
     0
  0
ENDTAB
  0
TABLE
  2
UCS
 70
     0
  0
ENDTAB
  0
TABLE
  2
APPID
 70
     2
  0
APPID
  2
ACAD
 70
     0
  0
APPID
  2
ACAECLAYERSTANDARD
 70
     0
  0
ENDTAB
  0
TABLE
  2
DIMSTYLE
 70
     1
  0
DIMSTYLE
  2
STANDARD
 70
     0
  3

  4

  5

  6

  7

 40
1.0
 41
0.18
 42
0.0625
 43
0.38
 44
0.18
 45
0.0
 46
0.0
 47
0.0
 48
0.0
140
0.18
141
0.09
142
0.0
143
25.4
144
1.0
145
0.0
146
1.0
147
0.09
 71
     0
 72
     0
 73
     1
 74
     1
 75
     0
 76
     0
 77
     0
 78
     0
170
     0
171
     2
172
     0
173
     0
174
     0
175
     0
176
     0
177
     0
178
     0
  0
ENDTAB
  0
ENDSEC
  0
SECTION
  2
BLOCKS
  0
BLOCK
  8
0
  2
$MODEL_SPACE
 70
     0
 10
0.0
 20
0.0
 30
0.0
  3
$MODEL_SPACE
  1

  0
ENDBLK
  5
27D
  8
0
  0
BLOCK
 67
     1
  8
0
  2
$PAPER_SPACE
 70
     0
 10
0.0
 20
0.0
 30
0.0
  3
$PAPER_SPACE
  1

  0
ENDBLK
  5
27B
 67
     1
  8
0
  0
BLOCK
  8
0
  2
SW_NOTE_0
 70
     0
 10
0.0
 20
0.0
 30
0.0
  3
SW_NOTE_0
  1

  0
TEXT
  5
A9
  8
0
  6
CONTINUOUS
 62
     0
 10
0.0
 20
0.0211956037151703
 30
0.0
 40
0.06
  1
INTERPRET GEOMETRIC
 41
0.7
 11
0.0
 21
0.0
 31
0.0
 73
     1
  0
TEXT
  5
AA
  8
0
  6
CONTINUOUS
 62
     0
 10
0.0
 20
-0.069370074568419
 30
0.0
 40
0.06
  1
TOLERANCING PER:
 41
0.7
 11
0.0
 21
-0.099370074568419
 31
0.0
 73
     1
  0
ENDBLK
  5
A8
  8
0
  0
BLOCK
  8
0
  2
SW_NOTE_1
 70
     0
 10
0.0
 20
0.0
 30
0.0
  3
SW_NOTE_1
  1

  0
TEXT
  5
B5
  8
0
  6
CONTINUOUS
 62
     0
 10
0.0
 20
0.0229619040247678
 30
0.0
 40
0.065
  1
DIMENSIONS ARE IN INCHES
 41
0.6562499999999999
 11
0.0
 21
0.0
 31
0.0
 73
     1
  0
TEXT
  5
B6
  8
0
  6
CONTINUOUS
 62
     0
 10
0.0
 20
-0.0718700759746428
 30
0.0
 40
0.065
  1
TOLERANCES:
 41
0.7
 11
0.0
 21
-0.1043700759746428
 31
0.0
 73
     1
  0
TEXT
  5
B7
  8
0
  6
CONTINUOUS
 62
     0
 10
0.0
 20
-0.1762401519492855
 30
0.0
 40
0.065
  1
FRACTIONAL
 41
0.7
 11
0.0
 21
-0.2087401519492855
 31
0.0
 73
     1
  0
TEXT
  5
B8
  8
0
  6
CONTINUOUS
 62
     0
 10
0.5175850508133257
 20
-0.1762401519492855
 30
0.0
 40
0.065
  1
%%p
 41
0.7
 11
0.5175850508133257
 21
-0.2087401519492855
 31
0.0
 73
     1
  0
TEXT
  5
B9
  8
0
  6
CONTINUOUS
 62
     0
 10
0.0
 20
-0.2806102279239283
 30
0.0
 40
0.065
  1
ANGULAR: MACH
 41
0.7
 11
0.0
 21
-0.3131102279239283
 31
0.0
 73
     1
  0
TEXT
  5
BA
  8
0
  6
CONTINUOUS
 62
     0
 10
0.7233732768635112
 20
-0.2806102279239283
 30
0.0
 40
0.065
  1
%%p
 41
0.7
 11
0.7233732768635112
 21
-0.3131102279239283
 31
0.0
 73
     1
  0
TEXT
  5
BB
  8
0
  6
CONTINUOUS
 62
     0
 10
0.7852857683117934
 20
-0.2806102279239283
 30
0.0
 40
0.065
  1
     BEND 
 41
0.4899999999999999
 11
0.7852857683117934
 21
-0.3131102279239283
 31
0.0
 73
     1
  0
TEXT
  5
BC
  8
0
  6
CONTINUOUS
 62
     0
 10
1.147841286706174
 20
-0.2806102279239283
 30
0.0
 40
0.065
  1
%%p
 41
0.7
 11
1.147841286706174
 21
-0.3131102279239283
 31
0.0
 73
     1
  0
TEXT
  5
BD
  8
0
  6
CONTINUOUS
 62
     0
 10
0.0
 20
-0.3849803038985711
 30
0.0
 40
0.065
  1
TWO PLACE DECIMAL    
 41
0.6
 11
0.0
 21
-0.417480303898571
 31
0.0
 73
     1
  0
TEXT
  5
BE
  8
0
  6
CONTINUOUS
 62
     0
 10
0.9794349188175727
 20
-0.3849803038985711
 30
0.0
 40
0.065
  1
%%p
 41
0.7
 11
0.9794349188175727
 21
-0.417480303898571
 31
0.0
 73
     1
  0
TEXT
  5
BF
  8
0
  6
CONTINUOUS
 62
     0
 10
0.0
 20
-0.4893503798732138
 30
0.0
 40
0.065
  1
THREE PLACE DECIMAL  
 41
0.6333333333333333
 11
0.0
 21
-0.5218503798732138
 31
0.0
 73
     1
  0
TEXT
  5
C0
  8
0
  6
CONTINUOUS
 62
     0
 10
0.9738037905355138
 20
-0.4893503798732138
 30
0.0
 40
0.065
  1
%%p
 41
0.7
 11
0.9738037905355138
 21
-0.5218503798732138
 31
0.0
 73
     1
  0
ENDBLK
  5
B4
  8
0
  0
BLOCK
  8
0
  2
SW_NOTE_2
 70
     0
 10
0.0
 20
0.0
 30
0.0
  3
SW_NOTE_2
  1

  0
TEXT
  5
CD
  8
0
  6
CONTINUOUS
 62
     0
 10
0.0
 20
0.0211956037151703
 30
0.0
 40
0.06
  1
THE INFORMATION CONTAINED IN THIS
 41
0.6575757575757576
 11
0.0
 21
0.0
 31
0.0
 73
     1
  0
TEXT
  5
CE
  8
0
  6
CONTINUOUS
 62
     0
 10
0.0
 20
-0.069370074568419
 30
0.0
 40
0.06
  1
DRAWING IS THE SOLE PROPERTY OF
 41
0.6435483870967742
 11
0.0
 21
-0.099370074568419
 31
0.0
 73
     1
  0
TEXT
  5
CF
  8
0
  6
CONTINUOUS
 62
     0
 10
0.0
 20
-0.168740149136838
 30
0.0
 40
0.06
  1
<INSERT COMPANY NAME HERE>.  ANY 
 41
0.6363636363636364
 11
0.0
 21
-0.198740149136838
 31
0.0
 73
     1
  0
TEXT
  5
D0
  8
0
  6
CONTINUOUS
 62
     0
 10
0.0
 20
-0.2681102237052571
 30
0.0
 40
0.06
  1
REPRODUCTION IN PART OR AS A WHOLE
 41
0.638235294117647
 11
0.0
 21
-0.298110223705257
 31
0.0
 73
     1
  0
TEXT
  5
D1
  8
0
  6
CONTINUOUS
 62
     0
 10
0.0
 20
-0.367480298273676
 30
0.0
 40
0.06
  1
WITHOUT THE WRITTEN PERMISSION OF
 41
0.6575757575757576
 11
0.0
 21
-0.397480298273676
 31
0.0
 73
     1
  0
TEXT
  5
D2
  8
0
  6
CONTINUOUS
 62
     0
 10
0.0
 20
-0.4668503728420951
 30
0.0
 40
0.06
  1
<INSERT COMPANY NAME HERE> IS 
 41
0.6416666666666667
 11
0.0
 21
-0.496850372842095
 31
0.0
 73
     1
  0
TEXT
  5
D3
  8
0
  6
CONTINUOUS
 62
     0
 10
0.0
 20
-0.566220447410514
 30
0.0
 40
0.06
  1
PROHIBITED.
 41
0.7
 11
0.0
 21
-0.596220447410514
 31
0.0
 73
     1
  0
ENDBLK
  5
CC
  8
0
  0
ENDSEC
  0
SECTION
  2
ENTITIES
  0
CIRCLE
  5
E2
  8
HOLES
  6
CONTINUOUS
 10
0.5910883827157214
 20
1.0
 30
0.0
 40
0.1050000000000004
  0
CIRCLE
  5
E3
  8
HOLES
  6
CONTINUOUS
 10
0.5910883827156752
 20
15.16
 30
0.0
 40
0.1049999999999969
  0
CIRCLE
  5
E4
  8
HOLES
  6
CONTINUOUS
 10
0.5910883827156646
 20
17.52
 30
0.0
 40
0.1050000000000004
  0
CIRCLE
  5
E5
  8
HOLES
  6
CONTINUOUS
 10
0.5910883827156574
 20
19.88
 30
0.0
 40
0.1049999999999969
  0
CIRCLE
  5
E6
  8
HOLES
  6
CONTINUOUS
 10
0.5910883827156468
 20
22.23999999999999
 30
0.0
 40
0.1050000000000004
  0
CIRCLE
  5
E7
  8
HOLES
  6
CONTINUOUS
 10
0.5910883827156219
 20
29.31999999999999
 30
0.0
 40
0.1050000000000004
  0
CIRCLE
  5
E8
  8
HOLES
  6
CONTINUOUS
 10
16.59108838271563
 20
26.95999999999999
 30
0.0
 40
0.1050000000000013
  0
CIRCLE
  5
E9
  8
HOLES
  6
CONTINUOUS
 10
0.591088382715629
 20
26.95999999999999
 30
0.0
 40
0.105000000000004
  0
CIRCLE
  5
EA
  8
HOLES
  6
CONTINUOUS
 10
16.59108838271564
 20
24.59999999999999
 30
0.0
 40
0.1050000000000009
  0
CIRCLE
  5
EB
  8
HOLES
  6
CONTINUOUS
 10
16.5910883827156
 20
34.03999999999998
 30
0.0
 40
0.1050000000000009
  0
CIRCLE
  5
EC
  8
HOLES
  6
CONTINUOUS
 10
16.59108838271562
 20
29.31999999999999
 30
0.0
 40
0.1050000000000013
  0
CIRCLE
  5
ED
  8
HOLES
  6
CONTINUOUS
 10
0.5910883827156148
 20
31.67999999999999
 30
0.0
 40
0.1050000000000004
  0
CIRCLE
  5
EE
  8
HOLES
  6
CONTINUOUS
 10
16.59108838271561
 20
31.67999999999999
 30
0.0
 40
0.1050000000000013
  0
CIRCLE
  5
EF
  8
HOLES
  6
CONTINUOUS
 10
0.5910883827156077
 20
34.03999999999998
 30
0.0
 40
0.1050000000000004
  0
CIRCLE
  5
F0
  8
HOLES
  6
CONTINUOUS
 10
16.59108838271567
 20
15.16
 30
0.0
 40
0.1049999999999991
  0
CIRCLE
  5
F1
  8
HOLES
  6
CONTINUOUS
 10
16.59108838271568
 20
12.8
 30
0.0
 40
0.1049999999999991
  0
CIRCLE
  5
F2
  8
HOLES
  6
CONTINUOUS
 10
16.59108838271569
 20
10.44
 30
0.0
 40
0.1049999999999991
  0
CIRCLE
  5
F3
  8
HOLES
  6
CONTINUOUS
 10
16.5910883827157
 20
8.079999999999998
 30
0.0
 40
0.1049999999999991
  0
CIRCLE
  5
F4
  8
HOLES
  6
CONTINUOUS
 10
0.5910883827156397
 20
24.59999999999999
 30
0.0
 40
0.1050000000000004
  0
CIRCLE
  5
F5
  8
HOLES
  6
CONTINUOUS
 10
16.59108838271572
 20
1.0
 30
0.0
 40
0.1049999999999986
  0
CIRCLE
  5
F6
  8
HOLES
  6
CONTINUOUS
 10
16.59108838271571
 20
3.359999999999999
 30
0.0
 40
0.1049999999999991
  0
CIRCLE
  5
F7
  8
HOLES
  6
CONTINUOUS
 10
16.5910883827157
 20
5.719999999999998
 30
0.0
 40
0.1049999999999991
  0
CIRCLE
  5
F8
  8
HOLES
  6
CONTINUOUS
 10
0.5910883827156788
 20
12.8
 30
0.0
 40
0.105000000000004
  0
CIRCLE
  5
F9
  8
HOLES
  6
CONTINUOUS
 10
0.5910883827156894
 20
10.44
 30
0.0
 40
0.1050000000000004
  0
CIRCLE
  5
FA
  8
HOLES
  6
CONTINUOUS
 10
0.5910883827156965
 20
8.079999999999998
 30
0.0
 40
0.1050000000000004
  0
CIRCLE
  5
FB
  8
HOLES
  6
CONTINUOUS
 10
0.5910883827157036
 20
5.719999999999998
 30
0.0
 40
0.1050000000000004
  0
CIRCLE
  5
FC
  8
HOLES
  6
CONTINUOUS
 10
16.59108838271566
 20
17.52
 30
0.0
 40
0.1049999999999986
  0
CIRCLE
  5
FD
  8
HOLES
  6
CONTINUOUS
 10
16.59108838271566
 20
19.88
 30
0.0
 40
0.1049999999999991
  0
CIRCLE
  5
FE
  8
HOLES
  6
CONTINUOUS
 10
16.59108838271565
 20
22.23999999999999
 30
0.0
 40
0.1049999999999991
  0
CIRCLE
  5
FF
  8
HOLES
  6
CONTINUOUS
 10
0.5910883827157143
 20
3.359999999999999
 30
0.0
 40
0.1049999999999969
  0
LINE
  5
100
  8
BENZENE
  6
CONTINUOUS
 10
2.591088462501467
 20
1.271225394695762
 30
0.0
 11
3.655238462683192
 21
1.885612737240754
 31
0.0
  0
LINE
  5
101
  8
BENZENE
  6
CONTINUOUS
 10
3.655238462683192
 20
1.885612737240754
 30
0.0
 11
3.655238462683192
 21
3.114387275665763
 31
0.0
  0
LINE
  5
102
  8
BENZENE
  6
CONTINUOUS
 10
3.655238462683192
 20
3.114387275665763
 30
0.0
 11
2.591088462501467
 21
3.728774471545782
 31
0.0
  0
LINE
  5
103
  8
BENZENE
  6
CONTINUOUS
 10
2.591088462501467
 20
3.728774471545782
 30
0.0
 11
1.526938315654771
 21
3.114387275665763
 31
0.0
  0
LINE
  5
104
  8
BENZENE
  6
CONTINUOUS
 10
1.526938315654771
 20
3.114387275665763
 30
0.0
 11
1.526938315654771
 21
1.885612737240754
 31
0.0
  0
LINE
  5
105
  8
BENZENE
  6
CONTINUOUS
 10
1.526938315654771
 20
1.885612737240754
 30
0.0
 11
2.591088462501467
 21
1.271225394695762
 31
0.0
  0
LINE
  5
106
  8
BENZENE
  6
CONTINUOUS
 10
2.591088462501467
 20
13.27122524967344
 30
0.0
 11
3.655238462683192
 21
13.88561303221335
 31
0.0
  0
LINE
  5
107
  8
BENZENE
  6
CONTINUOUS
 10
3.655238462683192
 20
13.88561303221335
 30
0.0
 11
3.655238462683192
 21
15.11438742397338
 31
0.0
  0
LINE
  5
108
  8
BENZENE
  6
CONTINUOUS
 10
3.655238462683192
 20
15.11438742397338
 30
0.0
 11
2.591088462501467
 21
15.72877403319351
 31
0.0
  0
LINE
  5
109
  8
BENZENE
  6
CONTINUOUS
 10
2.591088462501467
 20
15.72877403319351
 30
0.0
 11
1.526938315654771
 21
15.11438742397338
 31
0.0
  0
LINE
  5
10A
  8
BENZENE
  6
CONTINUOUS
 10
1.526938315654771
 20
15.11438742397338
 30
0.0
 11
1.526938315654771
 21
13.88561303221335
 31
0.0
  0
LINE
  5
10B
  8
BENZENE
  6
CONTINUOUS
 10
1.526938315654771
 20
13.88561303221335
 30
0.0
 11
2.591088462501467
 21
13.27122524967344
 31
0.0
  0
LINE
  5
10C
  8
BENZENE
  6
CONTINUOUS
 10
2.591088462501467
 20
10.27122491926659
 30
0.0
 11
3.655238462683192
 21
10.8856127018065
 31
0.0
  0
LINE
  5
10D
  8
BENZENE
  6
CONTINUOUS
 10
3.655238462683192
 20
10.8856127018065
 30
0.0
 11
3.655238462683192
 21
12.11438709356653
 31
0.0
  0
LINE
  5
10E
  8
BENZENE
  6
CONTINUOUS
 10
3.655238462683192
 20
12.11438709356653
 30
0.0
 11
2.591088462501467
 21
12.72877487610644
 31
0.0
  0
LINE
  5
10F
  8
BENZENE
  6
CONTINUOUS
 10
2.591088462501467
 20
12.72877487610644
 30
0.0
 11
1.526938315654771
 21
12.11438709356653
 31
0.0
  0
LINE
  5
110
  8
BENZENE
  6
CONTINUOUS
 10
1.526938315654771
 20
12.11438709356653
 30
0.0
 11
1.526938315654771
 21
10.8856127018065
 31
0.0
  0
LINE
  5
111
  8
BENZENE
  6
CONTINUOUS
 10
1.526938315654771
 20
10.8856127018065
 30
0.0
 11
2.591088462501467
 21
10.27122491926659
 31
0.0
  0
LINE
  5
112
  8
BENZENE
  6
CONTINUOUS
 10
2.591088462501467
 20
7.271225175519627
 30
0.0
 11
3.655238462683192
 21
7.885612958059536
 31
0.0
  0
LINE
  5
113
  8
BENZENE
  6
CONTINUOUS
 10
3.655238462683192
 20
7.885612958059536
 30
0.0
 11
3.655238462683192
 21
9.114387349819573
 31
0.0
  0
LINE
  5
114
  8
BENZENE
  6
CONTINUOUS
 10
3.655238462683192
 20
9.114387349819573
 30
0.0
 11
2.591088462501467
 21
9.728774545699592
 31
0.0
  0
LINE
  5
115
  8
BENZENE
  6
CONTINUOUS
 10
2.591088462501467
 20
9.728774545699592
 30
0.0
 11
1.526938315654771
 21
9.114387349819573
 31
0.0
  0
LINE
  5
116
  8
BENZENE
  6
CONTINUOUS
 10
1.526938315654771
 20
9.114387349819573
 30
0.0
 11
1.526938315654771
 21
7.885612958059536
 31
0.0
  0
LINE
  5
117
  8
BENZENE
  6
CONTINUOUS
 10
1.526938315654771
 20
7.885612958059536
 30
0.0
 11
2.591088462501467
 21
7.271225175519627
 31
0.0
  0
LINE
  5
118
  8
BENZENE
  6
CONTINUOUS
 10
2.591088462501467
 20
4.271225431772667
 30
0.0
 11
3.655238462683192
 21
4.885612627652685
 31
0.0
  0
LINE
  5
119
  8
BENZENE
  6
CONTINUOUS
 10
3.655238462683192
 20
4.885612627652685
 30
0.0
 11
3.655238462683192
 21
6.114387019412724
 31
0.0
  0
LINE
  5
11A
  8
BENZENE
  6
CONTINUOUS
 10
3.655238462683192
 20
6.114387019412724
 30
0.0
 11
2.591088462501467
 21
6.728774801952632
 31
0.0
  0
LINE
  5
11B
  8
BENZENE
  6
CONTINUOUS
 10
2.591088462501467
 20
6.728774801952632
 30
0.0
 11
1.526938315654771
 21
6.114387019412724
 31
0.0
  0
LINE
  5
11C
  8
BENZENE
  6
CONTINUOUS
 10
1.526938315654771
 20
6.114387019412724
 30
0.0
 11
1.526938315654771
 21
4.885612627652685
 31
0.0
  0
LINE
  5
11D
  8
BENZENE
  6
CONTINUOUS
 10
1.526938315654771
 20
4.885612627652685
 30
0.0
 11
2.591088462501467
 21
4.271225431772667
 31
0.0
  0
LINE
  5
11E
  8
BENZENE
  6
CONTINUOUS
 10
14.5910880241492
 20
31.27122488547498
 30
0.0
 11
15.65523861099081
 21
31.88561266801489
 31
0.0
  0
LINE
  5
11F
  8
BENZENE
  6
CONTINUOUS
 10
15.65523861099081
 20
31.88561266801489
 30
0.0
 11
15.65523861099081
 21
33.1143882330947
 31
0.0
  0
LINE
  5
120
  8
BENZENE
  6
CONTINUOUS
 10
15.65523861099081
 20
33.1143882330947
 30
0.0
 11
14.5910880241492
 21
33.72877366899505
 31
0.0
  0
LINE
  5
121
  8
BENZENE
  6
CONTINUOUS
 10
14.5910880241492
 20
33.72877366899505
 30
0.0
 11
13.52693861062737
 21
33.1143882330947
 31
0.0
  0
LINE
  5
122
  8
BENZENE
  6
CONTINUOUS
 10
13.52693861062737
 20
33.1143882330947
 30
0.0
 11
13.52693861062737
 21
31.88561266801489
 31
0.0
  0
LINE
  5
123
  8
BENZENE
  6
CONTINUOUS
 10
13.52693861062737
 20
31.88561266801489
 30
0.0
 11
14.5910880241492
 21
31.27122488547498
 31
0.0
  0
LINE
  5
124
  8
BENZENE
  6
CONTINUOUS
 10
11.59108886706213
 20
31.27122488547498
 30
0.0
 11
12.65523828058396
 21
31.88561266801489
 31
0.0
  0
LINE
  5
125
  8
BENZENE
  6
CONTINUOUS
 10
12.65523828058396
 20
31.88561266801489
 30
0.0
 11
12.65523828058396
 21
33.1143882330947
 31
0.0
  0
LINE
  5
126
  8
BENZENE
  6
CONTINUOUS
 10
12.65523828058396
 20
33.1143882330947
 30
0.0
 11
11.59108886706213
 21
33.72877366899505
 31
0.0
  0
LINE
  5
127
  8
BENZENE
  6
CONTINUOUS
 10
11.59108886706213
 20
33.72877366899505
 30
0.0
 11
10.52693828022051
 21
33.1143882330947
 31
0.0
  0
LINE
  5
128
  8
BENZENE
  6
CONTINUOUS
 10
10.52693828022051
 20
33.1143882330947
 30
0.0
 11
10.52693828022051
 21
31.88561266801489
 31
0.0
  0
LINE
  5
129
  8
BENZENE
  6
CONTINUOUS
 10
10.52693828022051
 20
31.88561266801489
 30
0.0
 11
11.59108886706213
 21
31.27122488547498
 31
0.0
  0
LINE
  5
12A
  8
BENZENE
  6
CONTINUOUS
 10
8.591088536655278
 20
31.27122488547498
 30
0.0
 11
9.655238536837002
 21
31.88561266801489
 31
0.0
  0
LINE
  5
12B
  8
BENZENE
  6
CONTINUOUS
 10
9.655238536837002
 20
31.88561266801489
 30
0.0
 11
9.655238536837002
 21
33.1143882330947
 31
0.0
  0
LINE
  5
12C
  8
BENZENE
  6
CONTINUOUS
 10
9.655238536837002
 20
33.1143882330947
 30
0.0
 11
8.591088536655278
 21
33.72877366899505
 31
0.0
  0
LINE
  5
12D
  8
BENZENE
  6
CONTINUOUS
 10
8.591088536655278
 20
33.72877366899505
 30
0.0
 11
7.526938536473553
 21
33.1143882330947
 31
0.0
  0
LINE
  5
12E
  8
BENZENE
  6
CONTINUOUS
 10
7.526938536473553
 20
33.1143882330947
 30
0.0
 11
7.526938536473553
 21
31.88561266801489
 31
0.0
  0
LINE
  5
12F
  8
BENZENE
  6
CONTINUOUS
 10
7.526938536473553
 20
31.88561266801489
 30
0.0
 11
8.591088536655278
 21
31.27122488547498
 31
0.0
  0
LINE
  5
130
  8
BENZENE
  6
CONTINUOUS
 10
5.591088206248427
 20
31.27122488547498
 30
0.0
 11
6.655238206430152
 21
31.88561266801489
 31
0.0
  0
LINE
  5
131
  8
BENZENE
  6
CONTINUOUS
 10
6.655238206430152
 20
31.88561266801489
 30
0.0
 11
6.655238206430152
 21
33.1143882330947
 31
0.0
  0
LINE
  5
132
  8
BENZENE
  6
CONTINUOUS
 10
6.655238206430152
 20
33.1143882330947
 30
0.0
 11
5.591088206248427
 21
33.72877366899505
 31
0.0
  0
LINE
  5
133
  8
BENZENE
  6
CONTINUOUS
 10
5.591088206248427
 20
33.72877366899505
 30
0.0
 11
4.526938499396648
 21
33.1143882330947
 31
0.0
  0
LINE
  5
134
  8
BENZENE
  6
CONTINUOUS
 10
4.526938499396648
 20
33.1143882330947
 30
0.0
 11
4.526938499396648
 21
31.88561266801489
 31
0.0
  0
LINE
  5
135
  8
BENZENE
  6
CONTINUOUS
 10
4.526938499396648
 20
31.88561266801489
 30
0.0
 11
5.591088206248427
 21
31.27122488547498
 31
0.0
  0
LINE
  5
136
  8
BENZENE
  6
CONTINUOUS
 10
14.5910880241492
 20
28.27122455506813
 30
0.0
 11
15.65523861099081
 21
28.88561233760804
 31
0.0
  0
LINE
  5
137
  8
BENZENE
  6
CONTINUOUS
 10
15.65523861099081
 20
28.88561233760804
 30
0.0
 11
15.65523861099081
 21
30.11438790268785
 31
0.0
  0
LINE
  5
138
  8
BENZENE
  6
CONTINUOUS
 10
15.65523861099081
 20
30.11438790268785
 30
0.0
 11
14.5910880241492
 21
30.72877568522776
 31
0.0
  0
LINE
  5
139
  8
BENZENE
  6
CONTINUOUS
 10
14.5910880241492
 20
30.72877568522776
 30
0.0
 11
13.52693861062737
 21
30.11438790268785
 31
0.0
  0
LINE
  5
13A
  8
BENZENE
  6
CONTINUOUS
 10
13.52693861062737
 20
30.11438790268785
 30
0.0
 11
13.52693861062737
 21
28.88561233760804
 31
0.0
  0
LINE
  5
13B
  8
BENZENE
  6
CONTINUOUS
 10
13.52693861062737
 20
28.88561233760804
 30
0.0
 11
14.5910880241492
 21
28.27122455506813
 31
0.0
  0
LINE
  5
13C
  8
BENZENE
  6
CONTINUOUS
 10
11.59108886706213
 20
28.27122455506813
 30
0.0
 11
12.65523828058396
 21
28.88561233760804
 31
0.0
  0
LINE
  5
13D
  8
BENZENE
  6
CONTINUOUS
 10
12.65523828058396
 20
28.88561233760804
 30
0.0
 11
12.65523828058396
 21
30.11438790268785
 31
0.0
  0
LINE
  5
13E
  8
BENZENE
  6
CONTINUOUS
 10
12.65523828058396
 20
30.11438790268785
 30
0.0
 11
11.59108886706213
 21
30.72877568522776
 31
0.0
  0
LINE
  5
13F
  8
BENZENE
  6
CONTINUOUS
 10
11.59108886706213
 20
30.72877568522776
 30
0.0
 11
10.52693828022051
 21
30.11438790268785
 31
0.0
  0
LINE
  5
140
  8
BENZENE
  6
CONTINUOUS
 10
10.52693828022051
 20
30.11438790268785
 30
0.0
 11
10.52693828022051
 21
28.88561233760804
 31
0.0
  0
LINE
  5
141
  8
BENZENE
  6
CONTINUOUS
 10
10.52693828022051
 20
28.88561233760804
 30
0.0
 11
11.59108886706213
 21
28.27122455506813
 31
0.0
  0
LINE
  5
142
  8
BENZENE
  6
CONTINUOUS
 10
8.591088536655278
 20
28.27122455506813
 30
0.0
 11
9.655238536837002
 21
28.88561233760804
 31
0.0
  0
LINE
  5
143
  8
BENZENE
  6
CONTINUOUS
 10
9.655238536837002
 20
28.88561233760804
 30
0.0
 11
9.655238536837002
 21
30.11438790268785
 31
0.0
  0
LINE
  5
144
  8
BENZENE
  6
CONTINUOUS
 10
9.655238536837002
 20
30.11438790268785
 30
0.0
 11
8.591088536655278
 21
30.72877568522776
 31
0.0
  0
LINE
  5
145
  8
BENZENE
  6
CONTINUOUS
 10
8.591088536655278
 20
30.72877568522776
 30
0.0
 11
7.526938536473553
 21
30.11438790268785
 31
0.0
  0
LINE
  5
146
  8
BENZENE
  6
CONTINUOUS
 10
7.526938536473553
 20
30.11438790268785
 30
0.0
 11
7.526938536473553
 21
28.88561233760804
 31
0.0
  0
LINE
  5
147
  8
BENZENE
  6
CONTINUOUS
 10
7.526938536473553
 20
28.88561233760804
 30
0.0
 11
8.591088536655278
 21
28.27122455506813
 31
0.0
  0
LINE
  5
148
  8
BENZENE
  6
CONTINUOUS
 10
5.591088206248427
 20
28.27122455506813
 30
0.0
 11
6.655238206430152
 21
28.88561233760804
 31
0.0
  0
LINE
  5
149
  8
BENZENE
  6
CONTINUOUS
 10
6.655238206430152
 20
28.88561233760804
 30
0.0
 11
6.655238206430152
 21
30.11438790268785
 31
0.0
  0
LINE
  5
14A
  8
BENZENE
  6
CONTINUOUS
 10
6.655238206430152
 20
30.11438790268785
 30
0.0
 11
5.591088206248427
 21
30.72877568522776
 31
0.0
  0
LINE
  5
14B
  8
BENZENE
  6
CONTINUOUS
 10
5.591088206248427
 20
30.72877568522776
 30
0.0
 11
4.526938499396648
 21
30.11438790268785
 31
0.0
  0
LINE
  5
14C
  8
BENZENE
  6
CONTINUOUS
 10
4.526938499396648
 20
30.11438790268785
 30
0.0
 11
4.526938499396648
 21
28.88561233760804
 31
0.0
  0
LINE
  5
14D
  8
BENZENE
  6
CONTINUOUS
 10
4.526938499396648
 20
28.88561233760804
 30
0.0
 11
5.591088206248427
 21
28.27122455506813
 31
0.0
  0
LINE
  5
14E
  8
BENZENE
  6
CONTINUOUS
 10
14.5910880241492
 20
25.27122422466128
 30
0.0
 11
15.65523861099081
 21
25.88561200720119
 31
0.0
  0
LINE
  5
14F
  8
BENZENE
  6
CONTINUOUS
 10
15.65523861099081
 20
25.88561200720119
 30
0.0
 11
15.65523861099081
 21
27.114387572281
 31
0.0
  0
LINE
  5
150
  8
BENZENE
  6
CONTINUOUS
 10
15.65523861099081
 20
27.114387572281
 30
0.0
 11
14.5910880241492
 21
27.72877535482091
 31
0.0
  0
LINE
  5
151
  8
BENZENE
  6
CONTINUOUS
 10
14.5910880241492
 20
27.72877535482091
 30
0.0
 11
13.52693861062737
 21
27.114387572281
 31
0.0
  0
LINE
  5
152
  8
BENZENE
  6
CONTINUOUS
 10
13.52693861062737
 20
27.114387572281
 30
0.0
 11
13.52693861062737
 21
25.88561200720119
 31
0.0
  0
LINE
  5
153
  8
BENZENE
  6
CONTINUOUS
 10
13.52693861062737
 20
25.88561200720119
 30
0.0
 11
14.5910880241492
 21
25.27122422466128
 31
0.0
  0
LINE
  5
154
  8
BENZENE
  6
CONTINUOUS
 10
11.59108886706213
 20
25.27122422466128
 30
0.0
 11
12.65523828058396
 21
25.88561200720119
 31
0.0
  0
LINE
  5
155
  8
BENZENE
  6
CONTINUOUS
 10
12.65523828058396
 20
25.88561200720119
 30
0.0
 11
12.65523828058396
 21
27.114387572281
 31
0.0
  0
LINE
  5
156
  8
BENZENE
  6
CONTINUOUS
 10
12.65523828058396
 20
27.114387572281
 30
0.0
 11
11.59108886706213
 21
27.72877535482091
 31
0.0
  0
LINE
  5
157
  8
BENZENE
  6
CONTINUOUS
 10
11.59108886706213
 20
27.72877535482091
 30
0.0
 11
10.52693828022051
 21
27.114387572281
 31
0.0
  0
LINE
  5
158
  8
BENZENE
  6
CONTINUOUS
 10
10.52693828022051
 20
27.114387572281
 30
0.0
 11
10.52693828022051
 21
25.88561200720119
 31
0.0
  0
LINE
  5
159
  8
BENZENE
  6
CONTINUOUS
 10
10.52693828022051
 20
25.88561200720119
 30
0.0
 11
11.59108886706213
 21
25.27122422466128
 31
0.0
  0
LINE
  5
15A
  8
BENZENE
  6
CONTINUOUS
 10
8.591088536655278
 20
25.27122422466128
 30
0.0
 11
9.655238536837002
 21
25.88561200720119
 31
0.0
  0
LINE
  5
15B
  8
BENZENE
  6
CONTINUOUS
 10
9.655238536837002
 20
25.88561200720119
 30
0.0
 11
9.655238536837002
 21
27.114387572281
 31
0.0
  0
LINE
  5
15C
  8
BENZENE
  6
CONTINUOUS
 10
9.655238536837002
 20
27.114387572281
 30
0.0
 11
8.591088536655278
 21
27.72877535482091
 31
0.0
  0
LINE
  5
15D
  8
BENZENE
  6
CONTINUOUS
 10
8.591088536655278
 20
27.72877535482091
 30
0.0
 11
7.526938536473553
 21
27.114387572281
 31
0.0
  0
LINE
  5
15E
  8
BENZENE
  6
CONTINUOUS
 10
7.526938536473553
 20
27.114387572281
 30
0.0
 11
7.526938536473553
 21
25.88561200720119
 31
0.0
  0
LINE
  5
15F
  8
BENZENE
  6
CONTINUOUS
 10
7.526938536473553
 20
25.88561200720119
 30
0.0
 11
8.591088536655278
 21
25.27122422466128
 31
0.0
  0
LINE
  5
160
  8
BENZENE
  6
CONTINUOUS
 10
5.591088206248427
 20
25.27122422466128
 30
0.0
 11
6.655238206430152
 21
25.88561200720119
 31
0.0
  0
LINE
  5
161
  8
BENZENE
  6
CONTINUOUS
 10
6.655238206430152
 20
25.88561200720119
 30
0.0
 11
6.655238206430152
 21
27.114387572281
 31
0.0
  0
LINE
  5
162
  8
BENZENE
  6
CONTINUOUS
 10
6.655238206430152
 20
27.114387572281
 30
0.0
 11
5.591088206248427
 21
27.72877535482091
 31
0.0
  0
LINE
  5
163
  8
BENZENE
  6
CONTINUOUS
 10
5.591088206248427
 20
27.72877535482091
 30
0.0
 11
4.526938499396648
 21
27.114387572281
 31
0.0
  0
LINE
  5
164
  8
BENZENE
  6
CONTINUOUS
 10
4.526938499396648
 20
27.114387572281
 30
0.0
 11
4.526938499396648
 21
25.88561200720119
 31
0.0
  0
LINE
  5
165
  8
BENZENE
  6
CONTINUOUS
 10
4.526938499396648
 20
25.88561200720119
 30
0.0
 11
5.591088206248427
 21
25.27122422466128
 31
0.0
  0
LINE
  5
166
  8
BENZENE
  6
CONTINUOUS
 10
2.591088462501467
 20
16.27122558008029
 30
0.0
 11
3.655238462683192
 21
16.88561218930042
 31
0.0
  0
LINE
  5
167
  8
BENZENE
  6
CONTINUOUS
 10
3.655238462683192
 20
16.88561218930042
 30
0.0
 11
3.655238462683192
 21
18.11438775438023
 31
0.0
  0
LINE
  5
168
  8
BENZENE
  6
CONTINUOUS
 10
3.655238462683192
 20
18.11438775438023
 30
0.0
 11
2.591088462501467
 21
18.72877436360036
 31
0.0
  0
LINE
  5
169
  8
BENZENE
  6
CONTINUOUS
 10
2.591088462501467
 20
18.72877436360036
 30
0.0
 11
1.526938315654771
 21
18.11438775438023
 31
0.0
  0
LINE
  5
16A
  8
BENZENE
  6
CONTINUOUS
 10
1.526938315654771
 20
18.11438775438023
 30
0.0
 11
1.526938315654771
 21
16.88561218930042
 31
0.0
  0
LINE
  5
16B
  8
BENZENE
  6
CONTINUOUS
 10
1.526938315654771
 20
16.88561218930042
 30
0.0
 11
2.591088462501467
 21
16.27122558008029
 31
0.0
  0
LINE
  5
16C
  8
BENZENE
  6
CONTINUOUS
 10
2.591088462501467
 20
19.27122591048714
 30
0.0
 11
3.655238462683192
 21
19.88561369302705
 31
0.0
  0
LINE
  5
16D
  8
BENZENE
  6
CONTINUOUS
 10
3.655238462683192
 20
19.88561369302705
 30
0.0
 11
3.655238462683192
 21
21.11438691146731
 31
0.0
  0
LINE
  5
16E
  8
BENZENE
  6
CONTINUOUS
 10
3.655238462683192
 20
21.11438691146731
 30
0.0
 11
2.591088462501467
 21
21.72877469400721
 31
0.0
  0
LINE
  5
16F
  8
BENZENE
  6
CONTINUOUS
 10
2.591088462501467
 20
21.72877469400721
 30
0.0
 11
1.526938315654771
 21
21.11438691146731
 31
0.0
  0
LINE
  5
170
  8
BENZENE
  6
CONTINUOUS
 10
1.526938315654771
 20
21.11438691146731
 30
0.0
 11
1.526938315654771
 21
19.88561369302705
 31
0.0
  0
LINE
  5
171
  8
BENZENE
  6
CONTINUOUS
 10
1.526938315654771
 20
19.88561369302705
 30
0.0
 11
2.591088462501467
 21
19.27122591048714
 31
0.0
  0
LINE
  5
172
  8
BENZENE
  6
CONTINUOUS
 10
2.591088462501467
 20
22.27122624089399
 30
0.0
 11
3.655238462683192
 21
22.88561167679434
 31
0.0
  0
LINE
  5
173
  8
BENZENE
  6
CONTINUOUS
 10
3.655238462683192
 20
22.88561167679434
 30
0.0
 11
3.655238462683192
 21
24.11438724187416
 31
0.0
  0
LINE
  5
174
  8
BENZENE
  6
CONTINUOUS
 10
3.655238462683192
 20
24.11438724187416
 30
0.0
 11
2.591088462501467
 21
24.72877502441406
 31
0.0
  0
LINE
  5
175
  8
BENZENE
  6
CONTINUOUS
 10
2.591088462501467
 20
24.72877502441406
 30
0.0
 11
1.526938315654771
 21
24.11438724187416
 31
0.0
  0
LINE
  5
176
  8
BENZENE
  6
CONTINUOUS
 10
1.526938315654771
 20
24.11438724187416
 30
0.0
 11
1.526938315654771
 21
22.88561167679434
 31
0.0
  0
LINE
  5
177
  8
BENZENE
  6
CONTINUOUS
 10
1.526938315654771
 20
22.88561167679434
 30
0.0
 11
2.591088462501467
 21
22.27122624089399
 31
0.0
  0
LINE
  5
178
  8
BENZENE
  6
CONTINUOUS
 10
2.591088462501467
 20
25.27122422466128
 30
0.0
 11
3.655238462683192
 21
25.88561200720119
 31
0.0
  0
LINE
  5
179
  8
BENZENE
  6
CONTINUOUS
 10
3.655238462683192
 20
25.88561200720119
 30
0.0
 11
3.655238462683192
 21
27.114387572281
 31
0.0
  0
LINE
  5
17A
  8
BENZENE
  6
CONTINUOUS
 10
3.655238462683192
 20
27.114387572281
 30
0.0
 11
2.591088462501467
 21
27.72877535482091
 31
0.0
  0
LINE
  5
17B
  8
BENZENE
  6
CONTINUOUS
 10
2.591088462501467
 20
27.72877535482091
 30
0.0
 11
1.526938315654771
 21
27.114387572281
 31
0.0
  0
LINE
  5
17C
  8
BENZENE
  6
CONTINUOUS
 10
1.526938315654771
 20
27.114387572281
 30
0.0
 11
1.526938315654771
 21
25.88561200720119
 31
0.0
  0
LINE
  5
17D
  8
BENZENE
  6
CONTINUOUS
 10
1.526938315654771
 20
25.88561200720119
 30
0.0
 11
2.591088462501467
 21
25.27122422466128
 31
0.0
  0
LINE
  5
17E
  8
BENZENE
  6
CONTINUOUS
 10
2.591088462501467
 20
28.27122455506813
 30
0.0
 11
3.655238462683192
 21
28.88561233760804
 31
0.0
  0
LINE
  5
17F
  8
BENZENE
  6
CONTINUOUS
 10
3.655238462683192
 20
28.88561233760804
 30
0.0
 11
3.655238462683192
 21
30.11438790268785
 31
0.0
  0
LINE
  5
180
  8
BENZENE
  6
CONTINUOUS
 10
3.655238462683192
 20
30.11438790268785
 30
0.0
 11
2.591088462501467
 21
30.72877568522776
 31
0.0
  0
LINE
  5
181
  8
BENZENE
  6
CONTINUOUS
 10
2.591088462501467
 20
30.72877568522776
 30
0.0
 11
1.526938315654771
 21
30.11438790268785
 31
0.0
  0
LINE
  5
182
  8
BENZENE
  6
CONTINUOUS
 10
1.526938315654771
 20
30.11438790268785
 30
0.0
 11
1.526938315654771
 21
28.88561233760804
 31
0.0
  0
LINE
  5
183
  8
BENZENE
  6
CONTINUOUS
 10
1.526938315654771
 20
28.88561233760804
 30
0.0
 11
2.591088462501467
 21
28.27122455506813
 31
0.0
  0
LINE
  5
184
  8
BENZENE
  6
CONTINUOUS
 10
2.591088462501467
 20
31.27122488547498
 30
0.0
 11
3.655238462683192
 21
31.88561266801489
 31
0.0
  0
LINE
  5
185
  8
BENZENE
  6
CONTINUOUS
 10
3.655238462683192
 20
31.88561266801489
 30
0.0
 11
3.655238462683192
 21
33.1143882330947
 31
0.0
  0
LINE
  5
186
  8
BENZENE
  6
CONTINUOUS
 10
3.655238462683192
 20
33.1143882330947
 30
0.0
 11
2.591088462501467
 21
33.72877366899505
 31
0.0
  0
LINE
  5
187
  8
BENZENE
  6
CONTINUOUS
 10
2.591088462501467
 20
33.72877366899505
 30
0.0
 11
1.526938315654771
 21
33.1143882330947
 31
0.0
  0
LINE
  5
188
  8
BENZENE
  6
CONTINUOUS
 10
1.526938315654771
 20
33.1143882330947
 30
0.0
 11
1.526938315654771
 21
31.88561266801489
 31
0.0
  0
LINE
  5
189
  8
BENZENE
  6
CONTINUOUS
 10
1.526938315654771
 20
31.88561266801489
 30
0.0
 11
2.591088462501467
 21
31.27122488547498
 31
0.0
  0
LINE
  5
18A
  8
BENZENE
  6
CONTINUOUS
 10
14.5910880241492
 20
22.27122624089399
 30
0.0
 11
15.65523861099081
 21
22.88561167679434
 31
0.0
  0
LINE
  5
18B
  8
BENZENE
  6
CONTINUOUS
 10
15.65523861099081
 20
22.88561167679434
 30
0.0
 11
15.65523861099081
 21
24.11438724187416
 31
0.0
  0
LINE
  5
18C
  8
BENZENE
  6
CONTINUOUS
 10
15.65523861099081
 20
24.11438724187416
 30
0.0
 11
14.5910880241492
 21
24.72877502441406
 31
0.0
  0
LINE
  5
18D
  8
BENZENE
  6
CONTINUOUS
 10
14.5910880241492
 20
24.72877502441406
 30
0.0
 11
13.52693861062737
 21
24.11438724187416
 31
0.0
  0
LINE
  5
18E
  8
BENZENE
  6
CONTINUOUS
 10
13.52693861062737
 20
24.11438724187416
 30
0.0
 11
13.52693861062737
 21
22.88561167679434
 31
0.0
  0
LINE
  5
18F
  8
BENZENE
  6
CONTINUOUS
 10
13.52693861062737
 20
22.88561167679434
 30
0.0
 11
14.5910880241492
 21
22.27122624089399
 31
0.0
  0
LINE
  5
190
  8
BENZENE
  6
CONTINUOUS
 10
11.59108886706213
 20
22.27122624089399
 30
0.0
 11
12.65523828058396
 21
22.88561167679434
 31
0.0
  0
LINE
  5
191
  8
BENZENE
  6
CONTINUOUS
 10
12.65523828058396
 20
22.88561167679434
 30
0.0
 11
12.65523828058396
 21
24.11438724187416
 31
0.0
  0
LINE
  5
192
  8
BENZENE
  6
CONTINUOUS
 10
12.65523828058396
 20
24.11438724187416
 30
0.0
 11
11.59108886706213
 21
24.72877502441406
 31
0.0
  0
LINE
  5
193
  8
BENZENE
  6
CONTINUOUS
 10
11.59108886706213
 20
24.72877502441406
 30
0.0
 11
10.52693828022051
 21
24.11438724187416
 31
0.0
  0
LINE
  5
194
  8
BENZENE
  6
CONTINUOUS
 10
10.52693828022051
 20
24.11438724187416
 30
0.0
 11
10.52693828022051
 21
22.88561167679434
 31
0.0
  0
LINE
  5
195
  8
BENZENE
  6
CONTINUOUS
 10
10.52693828022051
 20
22.88561167679434
 30
0.0
 11
11.59108886706213
 21
22.27122624089399
 31
0.0
  0
LINE
  5
196
  8
BENZENE
  6
CONTINUOUS
 10
8.591088536655278
 20
22.27122624089399
 30
0.0
 11
9.655238536837002
 21
22.88561167679434
 31
0.0
  0
LINE
  5
197
  8
BENZENE
  6
CONTINUOUS
 10
9.655238536837002
 20
22.88561167679434
 30
0.0
 11
9.655238536837002
 21
24.11438724187416
 31
0.0
  0
LINE
  5
198
  8
BENZENE
  6
CONTINUOUS
 10
9.655238536837002
 20
24.11438724187416
 30
0.0
 11
8.591088536655278
 21
24.72877502441406
 31
0.0
  0
LINE
  5
199
  8
BENZENE
  6
CONTINUOUS
 10
8.591088536655278
 20
24.72877502441406
 30
0.0
 11
7.526938536473553
 21
24.11438724187416
 31
0.0
  0
LINE
  5
19A
  8
BENZENE
  6
CONTINUOUS
 10
7.526938536473553
 20
24.11438724187416
 30
0.0
 11
7.526938536473553
 21
22.88561167679434
 31
0.0
  0
LINE
  5
19B
  8
BENZENE
  6
CONTINUOUS
 10
7.526938536473553
 20
22.88561167679434
 30
0.0
 11
8.591088536655278
 21
22.27122624089399
 31
0.0
  0
LINE
  5
19C
  8
BENZENE
  6
CONTINUOUS
 10
5.591088206248427
 20
22.27122624089399
 30
0.0
 11
6.655238206430152
 21
22.88561167679434
 31
0.0
  0
LINE
  5
19D
  8
BENZENE
  6
CONTINUOUS
 10
6.655238206430152
 20
22.88561167679434
 30
0.0
 11
6.655238206430152
 21
24.11438724187416
 31
0.0
  0
LINE
  5
19E
  8
BENZENE
  6
CONTINUOUS
 10
6.655238206430152
 20
24.11438724187416
 30
0.0
 11
5.591088206248427
 21
24.72877502441406
 31
0.0
  0
LINE
  5
19F
  8
BENZENE
  6
CONTINUOUS
 10
5.591088206248427
 20
24.72877502441406
 30
0.0
 11
4.526938499396648
 21
24.11438724187416
 31
0.0
  0
LINE
  5
1A0
  8
BENZENE
  6
CONTINUOUS
 10
4.526938499396648
 20
24.11438724187416
 30
0.0
 11
4.526938499396648
 21
22.88561167679434
 31
0.0
  0
LINE
  5
1A1
  8
BENZENE
  6
CONTINUOUS
 10
4.526938499396648
 20
22.88561167679434
 30
0.0
 11
5.591088206248427
 21
22.27122624089399
 31
0.0
  0
LINE
  5
1A2
  8
BENZENE
  6
CONTINUOUS
 10
14.5910880241492
 20
19.27122591048714
 30
0.0
 11
15.65523861099081
 21
19.88561369302705
 31
0.0
  0
LINE
  5
1A3
  8
BENZENE
  6
CONTINUOUS
 10
15.65523861099081
 20
19.88561369302705
 30
0.0
 11
15.65523861099081
 21
21.11438691146731
 31
0.0
  0
LINE
  5
1A4
  8
BENZENE
  6
CONTINUOUS
 10
15.65523861099081
 20
21.11438691146731
 30
0.0
 11
14.5910880241492
 21
21.72877469400721
 31
0.0
  0
LINE
  5
1A5
  8
BENZENE
  6
CONTINUOUS
 10
14.5910880241492
 20
21.72877469400721
 30
0.0
 11
13.52693861062737
 21
21.11438691146731
 31
0.0
  0
LINE
  5
1A6
  8
BENZENE
  6
CONTINUOUS
 10
13.52693861062737
 20
21.11438691146731
 30
0.0
 11
13.52693861062737
 21
19.88561369302705
 31
0.0
  0
LINE
  5
1A7
  8
BENZENE
  6
CONTINUOUS
 10
13.52693861062737
 20
19.88561369302705
 30
0.0
 11
14.5910880241492
 21
19.27122591048714
 31
0.0
  0
LINE
  5
1A8
  8
BENZENE
  6
CONTINUOUS
 10
11.59108886706213
 20
19.27122591048714
 30
0.0
 11
12.65523828058396
 21
19.88561369302705
 31
0.0
  0
LINE
  5
1A9
  8
BENZENE
  6
CONTINUOUS
 10
12.65523828058396
 20
19.88561369302705
 30
0.0
 11
12.65523828058396
 21
21.11438691146731
 31
0.0
  0
LINE
  5
1AA
  8
BENZENE
  6
CONTINUOUS
 10
12.65523828058396
 20
21.11438691146731
 30
0.0
 11
11.59108886706213
 21
21.72877469400721
 31
0.0
  0
LINE
  5
1AB
  8
BENZENE
  6
CONTINUOUS
 10
11.59108886706213
 20
21.72877469400721
 30
0.0
 11
10.52693828022051
 21
21.11438691146731
 31
0.0
  0
LINE
  5
1AC
  8
BENZENE
  6
CONTINUOUS
 10
10.52693828022051
 20
21.11438691146731
 30
0.0
 11
10.52693828022051
 21
19.88561369302705
 31
0.0
  0
LINE
  5
1AD
  8
BENZENE
  6
CONTINUOUS
 10
10.52693828022051
 20
19.88561369302705
 30
0.0
 11
11.59108886706213
 21
19.27122591048714
 31
0.0
  0
LINE
  5
1AE
  8
BENZENE
  6
CONTINUOUS
 10
8.591088536655278
 20
19.27122591048714
 30
0.0
 11
9.655238536837002
 21
19.88561369302705
 31
0.0
  0
LINE
  5
1AF
  8
BENZENE
  6
CONTINUOUS
 10
9.655238536837002
 20
19.88561369302705
 30
0.0
 11
9.655238536837002
 21
21.11438691146731
 31
0.0
  0
LINE
  5
1B0
  8
BENZENE
  6
CONTINUOUS
 10
9.655238536837002
 20
21.11438691146731
 30
0.0
 11
8.591088536655278
 21
21.72877469400721
 31
0.0
  0
LINE
  5
1B1
  8
BENZENE
  6
CONTINUOUS
 10
8.591088536655278
 20
21.72877469400721
 30
0.0
 11
7.526938536473553
 21
21.11438691146731
 31
0.0
  0
LINE
  5
1B2
  8
BENZENE
  6
CONTINUOUS
 10
7.526938536473553
 20
21.11438691146731
 30
0.0
 11
7.526938536473553
 21
19.88561369302705
 31
0.0
  0
LINE
  5
1B3
  8
BENZENE
  6
CONTINUOUS
 10
7.526938536473553
 20
19.88561369302705
 30
0.0
 11
8.591088536655278
 21
19.27122591048714
 31
0.0
  0
LINE
  5
1B4
  8
BENZENE
  6
CONTINUOUS
 10
5.591088206248427
 20
19.27122591048714
 30
0.0
 11
6.655238206430152
 21
19.88561369302705
 31
0.0
  0
LINE
  5
1B5
  8
BENZENE
  6
CONTINUOUS
 10
6.655238206430152
 20
19.88561369302705
 30
0.0
 11
6.655238206430152
 21
21.11438691146731
 31
0.0
  0
LINE
  5
1B6
  8
BENZENE
  6
CONTINUOUS
 10
6.655238206430152
 20
21.11438691146731
 30
0.0
 11
5.591088206248427
 21
21.72877469400721
 31
0.0
  0
LINE
  5
1B7
  8
BENZENE
  6
CONTINUOUS
 10
5.591088206248427
 20
21.72877469400721
 30
0.0
 11
4.526938499396648
 21
21.11438691146731
 31
0.0
  0
LINE
  5
1B8
  8
BENZENE
  6
CONTINUOUS
 10
4.526938499396648
 20
21.11438691146731
 30
0.0
 11
4.526938499396648
 21
19.88561369302705
 31
0.0
  0
LINE
  5
1B9
  8
BENZENE
  6
CONTINUOUS
 10
4.526938499396648
 20
19.88561369302705
 30
0.0
 11
5.591088206248427
 21
19.27122591048714
 31
0.0
  0
LINE
  5
1BA
  8
BENZENE
  6
CONTINUOUS
 10
14.5910880241492
 20
16.27122558008029
 30
0.0
 11
15.65523861099081
 21
16.88561218930042
 31
0.0
  0
LINE
  5
1BB
  8
BENZENE
  6
CONTINUOUS
 10
15.65523861099081
 20
16.88561218930042
 30
0.0
 11
15.65523861099081
 21
18.11438775438023
 31
0.0
  0
LINE
  5
1BC
  8
BENZENE
  6
CONTINUOUS
 10
15.65523861099081
 20
18.11438775438023
 30
0.0
 11
14.5910880241492
 21
18.72877436360036
 31
0.0
  0
LINE
  5
1BD
  8
BENZENE
  6
CONTINUOUS
 10
14.5910880241492
 20
18.72877436360036
 30
0.0
 11
13.52693861062737
 21
18.11438775438023
 31
0.0
  0
LINE
  5
1BE
  8
BENZENE
  6
CONTINUOUS
 10
13.52693861062737
 20
18.11438775438023
 30
0.0
 11
13.52693861062737
 21
16.88561218930042
 31
0.0
  0
LINE
  5
1BF
  8
BENZENE
  6
CONTINUOUS
 10
13.52693861062737
 20
16.88561218930042
 30
0.0
 11
14.5910880241492
 21
16.27122558008029
 31
0.0
  0
LINE
  5
1C0
  8
BENZENE
  6
CONTINUOUS
 10
11.59108886706213
 20
16.27122558008029
 30
0.0
 11
12.65523828058396
 21
16.88561218930042
 31
0.0
  0
LINE
  5
1C1
  8
BENZENE
  6
CONTINUOUS
 10
12.65523828058396
 20
16.88561218930042
 30
0.0
 11
12.65523828058396
 21
18.11438775438023
 31
0.0
  0
LINE
  5
1C2
  8
BENZENE
  6
CONTINUOUS
 10
12.65523828058396
 20
18.11438775438023
 30
0.0
 11
11.59108886706213
 21
18.72877436360036
 31
0.0
  0
LINE
  5
1C3
  8
BENZENE
  6
CONTINUOUS
 10
11.59108886706213
 20
18.72877436360036
 30
0.0
 11
10.52693828022051
 21
18.11438775438023
 31
0.0
  0
LINE
  5
1C4
  8
BENZENE
  6
CONTINUOUS
 10
10.52693828022051
 20
18.11438775438023
 30
0.0
 11
10.52693828022051
 21
16.88561218930042
 31
0.0
  0
LINE
  5
1C5
  8
BENZENE
  6
CONTINUOUS
 10
10.52693828022051
 20
16.88561218930042
 30
0.0
 11
11.59108886706213
 21
16.27122558008029
 31
0.0
  0
LINE
  5
1C6
  8
BENZENE
  6
CONTINUOUS
 10
8.591088536655278
 20
16.27122558008029
 30
0.0
 11
9.655238536837002
 21
16.88561218930042
 31
0.0
  0
LINE
  5
1C7
  8
BENZENE
  6
CONTINUOUS
 10
9.655238536837002
 20
16.88561218930042
 30
0.0
 11
9.655238536837002
 21
18.11438775438023
 31
0.0
  0
LINE
  5
1C8
  8
BENZENE
  6
CONTINUOUS
 10
9.655238536837002
 20
18.11438775438023
 30
0.0
 11
8.591088536655278
 21
18.72877436360036
 31
0.0
  0
LINE
  5
1C9
  8
BENZENE
  6
CONTINUOUS
 10
8.591088536655278
 20
18.72877436360036
 30
0.0
 11
7.526938536473553
 21
18.11438775438023
 31
0.0
  0
LINE
  5
1CA
  8
BENZENE
  6
CONTINUOUS
 10
7.526938536473553
 20
18.11438775438023
 30
0.0
 11
7.526938536473553
 21
16.88561218930042
 31
0.0
  0
LINE
  5
1CB
  8
BENZENE
  6
CONTINUOUS
 10
7.526938536473553
 20
16.88561218930042
 30
0.0
 11
8.591088536655278
 21
16.27122558008029
 31
0.0
  0
LINE
  5
1CC
  8
BENZENE
  6
CONTINUOUS
 10
5.591088206248427
 20
16.27122558008029
 30
0.0
 11
6.655238206430152
 21
16.88561218930042
 31
0.0
  0
LINE
  5
1CD
  8
BENZENE
  6
CONTINUOUS
 10
6.655238206430152
 20
16.88561218930042
 30
0.0
 11
6.655238206430152
 21
18.11438775438023
 31
0.0
  0
LINE
  5
1CE
  8
BENZENE
  6
CONTINUOUS
 10
6.655238206430152
 20
18.11438775438023
 30
0.0
 11
5.591088206248427
 21
18.72877436360036
 31
0.0
  0
LINE
  5
1CF
  8
BENZENE
  6
CONTINUOUS
 10
5.591088206248427
 20
18.72877436360036
 30
0.0
 11
4.526938499396648
 21
18.11438775438023
 31
0.0
  0
LINE
  5
1D0
  8
BENZENE
  6
CONTINUOUS
 10
4.526938499396648
 20
18.11438775438023
 30
0.0
 11
4.526938499396648
 21
16.88561218930042
 31
0.0
  0
LINE
  5
1D1
  8
BENZENE
  6
CONTINUOUS
 10
4.526938499396648
 20
16.88561218930042
 30
0.0
 11
5.591088206248427
 21
16.27122558008029
 31
0.0
  0
LINE
  5
1D2
  8
BENZENE
  6
CONTINUOUS
 10
14.5910880241492
 20
13.27122524967344
 30
0.0
 11
15.65523861099081
 21
13.88561303221335
 31
0.0
  0
LINE
  5
1D3
  8
BENZENE
  6
CONTINUOUS
 10
15.65523861099081
 20
13.88561303221335
 30
0.0
 11
15.65523861099081
 21
15.11438742397338
 31
0.0
  0
LINE
  5
1D4
  8
BENZENE
  6
CONTINUOUS
 10
15.65523861099081
 20
15.11438742397338
 30
0.0
 11
14.5910880241492
 21
15.72877403319351
 31
0.0
  0
LINE
  5
1D5
  8
BENZENE
  6
CONTINUOUS
 10
14.5910880241492
 20
15.72877403319351
 30
0.0
 11
13.52693861062737
 21
15.11438742397338
 31
0.0
  0
LINE
  5
1D6
  8
BENZENE
  6
CONTINUOUS
 10
13.52693861062737
 20
15.11438742397338
 30
0.0
 11
13.52693861062737
 21
13.88561303221335
 31
0.0
  0
LINE
  5
1D7
  8
BENZENE
  6
CONTINUOUS
 10
13.52693861062737
 20
13.88561303221335
 30
0.0
 11
14.5910880241492
 21
13.27122524967344
 31
0.0
  0
LINE
  5
1D8
  8
BENZENE
  6
CONTINUOUS
 10
11.59108886706213
 20
13.27122524967344
 30
0.0
 11
12.65523828058396
 21
13.88561303221335
 31
0.0
  0
LINE
  5
1D9
  8
BENZENE
  6
CONTINUOUS
 10
12.65523828058396
 20
13.88561303221335
 30
0.0
 11
12.65523828058396
 21
15.11438742397338
 31
0.0
  0
LINE
  5
1DA
  8
BENZENE
  6
CONTINUOUS
 10
12.65523828058396
 20
15.11438742397338
 30
0.0
 11
11.59108886706213
 21
15.72877403319351
 31
0.0
  0
LINE
  5
1DB
  8
BENZENE
  6
CONTINUOUS
 10
11.59108886706213
 20
15.72877403319351
 30
0.0
 11
10.52693828022051
 21
15.11438742397338
 31
0.0
  0
LINE
  5
1DC
  8
BENZENE
  6
CONTINUOUS
 10
10.52693828022051
 20
15.11438742397338
 30
0.0
 11
10.52693828022051
 21
13.88561303221335
 31
0.0
  0
LINE
  5
1DD
  8
BENZENE
  6
CONTINUOUS
 10
10.52693828022051
 20
13.88561303221335
 30
0.0
 11
11.59108886706213
 21
13.27122524967344
 31
0.0
  0
LINE
  5
1DE
  8
BENZENE
  6
CONTINUOUS
 10
8.591088536655278
 20
13.27122524967344
 30
0.0
 11
9.655238536837002
 21
13.88561303221335
 31
0.0
  0
LINE
  5
1DF
  8
BENZENE
  6
CONTINUOUS
 10
9.655238536837002
 20
13.88561303221335
 30
0.0
 11
9.655238536837002
 21
15.11438742397338
 31
0.0
  0
LINE
  5
1E0
  8
BENZENE
  6
CONTINUOUS
 10
9.655238536837002
 20
15.11438742397338
 30
0.0
 11
8.591088536655278
 21
15.72877403319351
 31
0.0
  0
LINE
  5
1E1
  8
BENZENE
  6
CONTINUOUS
 10
8.591088536655278
 20
15.72877403319351
 30
0.0
 11
7.526938536473553
 21
15.11438742397338
 31
0.0
  0
LINE
  5
1E2
  8
BENZENE
  6
CONTINUOUS
 10
7.526938536473553
 20
15.11438742397338
 30
0.0
 11
7.526938536473553
 21
13.88561303221335
 31
0.0
  0
LINE
  5
1E3
  8
BENZENE
  6
CONTINUOUS
 10
7.526938536473553
 20
13.88561303221335
 30
0.0
 11
8.591088536655278
 21
13.27122524967344
 31
0.0
  0
LINE
  5
1E4
  8
BENZENE
  6
CONTINUOUS
 10
5.591088206248427
 20
13.27122524967344
 30
0.0
 11
6.655238206430152
 21
13.88561303221335
 31
0.0
  0
LINE
  5
1E5
  8
BENZENE
  6
CONTINUOUS
 10
6.655238206430152
 20
13.88561303221335
 30
0.0
 11
6.655238206430152
 21
15.11438742397338
 31
0.0
  0
LINE
  5
1E6
  8
BENZENE
  6
CONTINUOUS
 10
6.655238206430152
 20
15.11438742397338
 30
0.0
 11
5.591088206248427
 21
15.72877403319351
 31
0.0
  0
LINE
  5
1E7
  8
BENZENE
  6
CONTINUOUS
 10
5.591088206248427
 20
15.72877403319351
 30
0.0
 11
4.526938499396648
 21
15.11438742397338
 31
0.0
  0
LINE
  5
1E8
  8
BENZENE
  6
CONTINUOUS
 10
4.526938499396648
 20
15.11438742397338
 30
0.0
 11
4.526938499396648
 21
13.88561303221335
 31
0.0
  0
LINE
  5
1E9
  8
BENZENE
  6
CONTINUOUS
 10
4.526938499396648
 20
13.88561303221335
 30
0.0
 11
5.591088206248427
 21
13.27122524967344
 31
0.0
  0
LINE
  5
1EA
  8
BENZENE
  6
CONTINUOUS
 10
14.5910880241492
 20
10.27122491926659
 30
0.0
 11
15.65523861099081
 21
10.8856127018065
 31
0.0
  0
LINE
  5
1EB
  8
BENZENE
  6
CONTINUOUS
 10
15.65523861099081
 20
10.8856127018065
 30
0.0
 11
15.65523861099081
 21
12.11438709356653
 31
0.0
  0
LINE
  5
1EC
  8
BENZENE
  6
CONTINUOUS
 10
15.65523861099081
 20
12.11438709356653
 30
0.0
 11
14.5910880241492
 21
12.72877487610644
 31
0.0
  0
LINE
  5
1ED
  8
BENZENE
  6
CONTINUOUS
 10
14.5910880241492
 20
12.72877487610644
 30
0.0
 11
13.52693861062737
 21
12.11438709356653
 31
0.0
  0
LINE
  5
1EE
  8
BENZENE
  6
CONTINUOUS
 10
13.52693861062737
 20
12.11438709356653
 30
0.0
 11
13.52693861062737
 21
10.8856127018065
 31
0.0
  0
LINE
  5
1EF
  8
BENZENE
  6
CONTINUOUS
 10
13.52693861062737
 20
10.8856127018065
 30
0.0
 11
14.5910880241492
 21
10.27122491926659
 31
0.0
  0
LINE
  5
1F0
  8
BENZENE
  6
CONTINUOUS
 10
11.59108886706213
 20
10.27122491926659
 30
0.0
 11
12.65523828058396
 21
10.8856127018065
 31
0.0
  0
LINE
  5
1F1
  8
BENZENE
  6
CONTINUOUS
 10
12.65523828058396
 20
10.8856127018065
 30
0.0
 11
12.65523828058396
 21
12.11438709356653
 31
0.0
  0
LINE
  5
1F2
  8
BENZENE
  6
CONTINUOUS
 10
12.65523828058396
 20
12.11438709356653
 30
0.0
 11
11.59108886706213
 21
12.72877487610644
 31
0.0
  0
LINE
  5
1F3
  8
BENZENE
  6
CONTINUOUS
 10
11.59108886706213
 20
12.72877487610644
 30
0.0
 11
10.52693828022051
 21
12.11438709356653
 31
0.0
  0
LINE
  5
1F4
  8
BENZENE
  6
CONTINUOUS
 10
10.52693828022051
 20
12.11438709356653
 30
0.0
 11
10.52693828022051
 21
10.8856127018065
 31
0.0
  0
LINE
  5
1F5
  8
BENZENE
  6
CONTINUOUS
 10
10.52693828022051
 20
10.8856127018065
 30
0.0
 11
11.59108886706213
 21
10.27122491926659
 31
0.0
  0
LINE
  5
1F6
  8
BENZENE
  6
CONTINUOUS
 10
8.591088536655278
 20
10.27122491926659
 30
0.0
 11
9.655238536837002
 21
10.8856127018065
 31
0.0
  0
LINE
  5
1F7
  8
BENZENE
  6
CONTINUOUS
 10
9.655238536837002
 20
10.8856127018065
 30
0.0
 11
9.655238536837002
 21
12.11438709356653
 31
0.0
  0
LINE
  5
1F8
  8
BENZENE
  6
CONTINUOUS
 10
9.655238536837002
 20
12.11438709356653
 30
0.0
 11
8.591088536655278
 21
12.72877487610644
 31
0.0
  0
LINE
  5
1F9
  8
BENZENE
  6
CONTINUOUS
 10
8.591088536655278
 20
12.72877487610644
 30
0.0
 11
7.526938536473553
 21
12.11438709356653
 31
0.0
  0
LINE
  5
1FA
  8
BENZENE
  6
CONTINUOUS
 10
7.526938536473553
 20
12.11438709356653
 30
0.0
 11
7.526938536473553
 21
10.8856127018065
 31
0.0
  0
LINE
  5
1FB
  8
BENZENE
  6
CONTINUOUS
 10
7.526938536473553
 20
10.8856127018065
 30
0.0
 11
8.591088536655278
 21
10.27122491926659
 31
0.0
  0
LINE
  5
1FC
  8
BENZENE
  6
CONTINUOUS
 10
5.591088206248427
 20
10.27122491926659
 30
0.0
 11
6.655238206430152
 21
10.8856127018065
 31
0.0
  0
LINE
  5
1FD
  8
BENZENE
  6
CONTINUOUS
 10
6.655238206430152
 20
10.8856127018065
 30
0.0
 11
6.655238206430152
 21
12.11438709356653
 31
0.0
  0
LINE
  5
1FE
  8
BENZENE
  6
CONTINUOUS
 10
6.655238206430152
 20
12.11438709356653
 30
0.0
 11
5.591088206248427
 21
12.72877487610644
 31
0.0
  0
LINE
  5
1FF
  8
BENZENE
  6
CONTINUOUS
 10
5.591088206248427
 20
12.72877487610644
 30
0.0
 11
4.526938499396648
 21
12.11438709356653
 31
0.0
  0
LINE
  5
200
  8
BENZENE
  6
CONTINUOUS
 10
4.526938499396648
 20
12.11438709356653
 30
0.0
 11
4.526938499396648
 21
10.8856127018065
 31
0.0
  0
LINE
  5
201
  8
BENZENE
  6
CONTINUOUS
 10
4.526938499396648
 20
10.8856127018065
 30
0.0
 11
5.591088206248427
 21
10.27122491926659
 31
0.0
  0
LINE
  5
202
  8
BENZENE
  6
CONTINUOUS
 10
14.5910880241492
 20
7.271225175519627
 30
0.0
 11
15.65523861099081
 21
7.885612958059536
 31
0.0
  0
LINE
  5
203
  8
BENZENE
  6
CONTINUOUS
 10
15.65523861099081
 20
7.885612958059536
 30
0.0
 11
15.65523861099081
 21
9.114387349819573
 31
0.0
  0
LINE
  5
204
  8
BENZENE
  6
CONTINUOUS
 10
15.65523861099081
 20
9.114387349819573
 30
0.0
 11
14.5910880241492
 21
9.728774545699592
 31
0.0
  0
LINE
  5
205
  8
BENZENE
  6
CONTINUOUS
 10
14.5910880241492
 20
9.728774545699592
 30
0.0
 11
13.52693861062737
 21
9.114387349819573
 31
0.0
  0
LINE
  5
206
  8
BENZENE
  6
CONTINUOUS
 10
13.52693861062737
 20
9.114387349819573
 30
0.0
 11
13.52693861062737
 21
7.885612958059536
 31
0.0
  0
LINE
  5
207
  8
BENZENE
  6
CONTINUOUS
 10
13.52693861062737
 20
7.885612958059536
 30
0.0
 11
14.5910880241492
 21
7.271225175519627
 31
0.0
  0
LINE
  5
208
  8
BENZENE
  6
CONTINUOUS
 10
11.59108886706213
 20
7.271225175519627
 30
0.0
 11
12.65523828058396
 21
7.885612958059536
 31
0.0
  0
LINE
  5
209
  8
BENZENE
  6
CONTINUOUS
 10
12.65523828058396
 20
7.885612958059536
 30
0.0
 11
12.65523828058396
 21
9.114387349819573
 31
0.0
  0
LINE
  5
20A
  8
BENZENE
  6
CONTINUOUS
 10
12.65523828058396
 20
9.114387349819573
 30
0.0
 11
11.59108886706213
 21
9.728774545699592
 31
0.0
  0
LINE
  5
20B
  8
BENZENE
  6
CONTINUOUS
 10
11.59108886706213
 20
9.728774545699592
 30
0.0
 11
10.52693828022051
 21
9.114387349819573
 31
0.0
  0
LINE
  5
20C
  8
BENZENE
  6
CONTINUOUS
 10
10.52693828022051
 20
9.114387349819573
 30
0.0
 11
10.52693828022051
 21
7.885612958059536
 31
0.0
  0
LINE
  5
20D
  8
BENZENE
  6
CONTINUOUS
 10
10.52693828022051
 20
7.885612958059536
 30
0.0
 11
11.59108886706213
 21
7.271225175519627
 31
0.0
  0
LINE
  5
20E
  8
BENZENE
  6
CONTINUOUS
 10
8.591088536655278
 20
7.271225175519627
 30
0.0
 11
9.655238536837002
 21
7.885612958059536
 31
0.0
  0
LINE
  5
20F
  8
BENZENE
  6
CONTINUOUS
 10
9.655238536837002
 20
7.885612958059536
 30
0.0
 11
9.655238536837002
 21
9.114387349819573
 31
0.0
  0
LINE
  5
210
  8
BENZENE
  6
CONTINUOUS
 10
9.655238536837002
 20
9.114387349819573
 30
0.0
 11
8.591088536655278
 21
9.728774545699592
 31
0.0
  0
LINE
  5
211
  8
BENZENE
  6
CONTINUOUS
 10
8.591088536655278
 20
9.728774545699592
 30
0.0
 11
7.526938536473553
 21
9.114387349819573
 31
0.0
  0
LINE
  5
212
  8
BENZENE
  6
CONTINUOUS
 10
7.526938536473553
 20
9.114387349819573
 30
0.0
 11
7.526938536473553
 21
7.885612958059536
 31
0.0
  0
LINE
  5
213
  8
BENZENE
  6
CONTINUOUS
 10
7.526938536473553
 20
7.885612958059536
 30
0.0
 11
8.591088536655278
 21
7.271225175519627
 31
0.0
  0
LINE
  5
214
  8
BENZENE
  6
CONTINUOUS
 10
5.591088206248427
 20
7.271225175519627
 30
0.0
 11
6.655238206430152
 21
7.885612958059536
 31
0.0
  0
LINE
  5
215
  8
BENZENE
  6
CONTINUOUS
 10
6.655238206430152
 20
7.885612958059536
 30
0.0
 11
6.655238206430152
 21
9.114387349819573
 31
0.0
  0
LINE
  5
216
  8
BENZENE
  6
CONTINUOUS
 10
6.655238206430152
 20
9.114387349819573
 30
0.0
 11
5.591088206248427
 21
9.728774545699592
 31
0.0
  0
LINE
  5
217
  8
BENZENE
  6
CONTINUOUS
 10
5.591088206248427
 20
9.728774545699592
 30
0.0
 11
4.526938499396648
 21
9.114387349819573
 31
0.0
  0
LINE
  5
218
  8
BENZENE
  6
CONTINUOUS
 10
4.526938499396648
 20
9.114387349819573
 30
0.0
 11
4.526938499396648
 21
7.885612958059536
 31
0.0
  0
LINE
  5
219
  8
BENZENE
  6
CONTINUOUS
 10
4.526938499396648
 20
7.885612958059536
 30
0.0
 11
5.591088206248427
 21
7.271225175519627
 31
0.0
  0
LINE
  5
21A
  8
BENZENE
  6
CONTINUOUS
 10
14.5910880241492
 20
4.271225431772667
 30
0.0
 11
15.65523861099081
 21
4.885612627652685
 31
0.0
  0
LINE
  5
21B
  8
BENZENE
  6
CONTINUOUS
 10
15.65523861099081
 20
4.885612627652685
 30
0.0
 11
15.65523861099081
 21
6.114387019412724
 31
0.0
  0
LINE
  5
21C
  8
BENZENE
  6
CONTINUOUS
 10
15.65523861099081
 20
6.114387019412724
 30
0.0
 11
14.5910880241492
 21
6.728774801952632
 31
0.0
  0
LINE
  5
21D
  8
BENZENE
  6
CONTINUOUS
 10
14.5910880241492
 20
6.728774801952632
 30
0.0
 11
13.52693861062737
 21
6.114387019412724
 31
0.0
  0
LINE
  5
21E
  8
BENZENE
  6
CONTINUOUS
 10
13.52693861062737
 20
6.114387019412724
 30
0.0
 11
13.52693861062737
 21
4.885612627652685
 31
0.0
  0
LINE
  5
21F
  8
BENZENE
  6
CONTINUOUS
 10
13.52693861062737
 20
4.885612627652685
 30
0.0
 11
14.5910880241492
 21
4.271225431772667
 31
0.0
  0
LINE
  5
220
  8
BENZENE
  6
CONTINUOUS
 10
11.59108886706213
 20
4.271225431772667
 30
0.0
 11
12.65523828058396
 21
4.885612627652685
 31
0.0
  0
LINE
  5
221
  8
BENZENE
  6
CONTINUOUS
 10
12.65523828058396
 20
4.885612627652685
 30
0.0
 11
12.65523828058396
 21
6.114387019412724
 31
0.0
  0
LINE
  5
222
  8
BENZENE
  6
CONTINUOUS
 10
12.65523828058396
 20
6.114387019412724
 30
0.0
 11
11.59108886706213
 21
6.728774801952632
 31
0.0
  0
LINE
  5
223
  8
BENZENE
  6
CONTINUOUS
 10
11.59108886706213
 20
6.728774801952632
 30
0.0
 11
10.52693828022051
 21
6.114387019412724
 31
0.0
  0
LINE
  5
224
  8
BENZENE
  6
CONTINUOUS
 10
10.52693828022051
 20
6.114387019412724
 30
0.0
 11
10.52693828022051
 21
4.885612627652685
 31
0.0
  0
LINE
  5
225
  8
BENZENE
  6
CONTINUOUS
 10
10.52693828022051
 20
4.885612627652685
 30
0.0
 11
11.59108886706213
 21
4.271225431772667
 31
0.0
  0
LINE
  5
226
  8
BENZENE
  6
CONTINUOUS
 10
8.591088536655278
 20
4.271225431772667
 30
0.0
 11
9.655238536837002
 21
4.885612627652685
 31
0.0
  0
LINE
  5
227
  8
BENZENE
  6
CONTINUOUS
 10
9.655238536837002
 20
4.885612627652685
 30
0.0
 11
9.655238536837002
 21
6.114387019412724
 31
0.0
  0
LINE
  5
228
  8
BENZENE
  6
CONTINUOUS
 10
9.655238536837002
 20
6.114387019412724
 30
0.0
 11
8.591088536655278
 21
6.728774801952632
 31
0.0
  0
LINE
  5
229
  8
BENZENE
  6
CONTINUOUS
 10
8.591088536655278
 20
6.728774801952632
 30
0.0
 11
7.526938536473553
 21
6.114387019412724
 31
0.0
  0
LINE
  5
22A
  8
BENZENE
  6
CONTINUOUS
 10
7.526938536473553
 20
6.114387019412724
 30
0.0
 11
7.526938536473553
 21
4.885612627652685
 31
0.0
  0
LINE
  5
22B
  8
BENZENE
  6
CONTINUOUS
 10
7.526938536473553
 20
4.885612627652685
 30
0.0
 11
8.591088536655278
 21
4.271225431772667
 31
0.0
  0
LINE
  5
22C
  8
BENZENE
  6
CONTINUOUS
 10
5.591088206248427
 20
4.271225431772667
 30
0.0
 11
6.655238206430152
 21
4.885612627652685
 31
0.0
  0
LINE
  5
22D
  8
BENZENE
  6
CONTINUOUS
 10
6.655238206430152
 20
4.885612627652685
 30
0.0
 11
6.655238206430152
 21
6.114387019412724
 31
0.0
  0
LINE
  5
22E
  8
BENZENE
  6
CONTINUOUS
 10
6.655238206430152
 20
6.114387019412724
 30
0.0
 11
5.591088206248427
 21
6.728774801952632
 31
0.0
  0
LINE
  5
22F
  8
BENZENE
  6
CONTINUOUS
 10
5.591088206248427
 20
6.728774801952632
 30
0.0
 11
4.526938499396648
 21
6.114387019412724
 31
0.0
  0
LINE
  5
230
  8
BENZENE
  6
CONTINUOUS
 10
4.526938499396648
 20
6.114387019412724
 30
0.0
 11
4.526938499396648
 21
4.885612627652685
 31
0.0
  0
LINE
  5
231
  8
BENZENE
  6
CONTINUOUS
 10
4.526938499396648
 20
4.885612627652685
 30
0.0
 11
5.591088206248427
 21
4.271225431772667
 31
0.0
  0
LINE
  5
232
  8
BENZENE
  6
CONTINUOUS
 10
14.5910880241492
 20
1.271225394695762
 30
0.0
 11
15.65523861099081
 21
1.885612737240754
 31
0.0
  0
LINE
  5
233
  8
BENZENE
  6
CONTINUOUS
 10
15.65523861099081
 20
1.885612737240754
 30
0.0
 11
15.65523861099081
 21
3.114387275665763
 31
0.0
  0
LINE
  5
234
  8
BENZENE
  6
CONTINUOUS
 10
15.65523861099081
 20
3.114387275665763
 30
0.0
 11
14.5910880241492
 21
3.728774471545782
 31
0.0
  0
LINE
  5
235
  8
BENZENE
  6
CONTINUOUS
 10
14.5910880241492
 20
3.728774471545782
 30
0.0
 11
13.52693861062737
 21
3.114387275665763
 31
0.0
  0
LINE
  5
236
  8
BENZENE
  6
CONTINUOUS
 10
13.52693861062737
 20
3.114387275665763
 30
0.0
 11
13.52693861062737
 21
1.885612737240754
 31
0.0
  0
LINE
  5
237
  8
BENZENE
  6
CONTINUOUS
 10
13.52693861062737
 20
1.885612737240754
 30
0.0
 11
14.5910880241492
 21
1.271225394695762
 31
0.0
  0
LINE
  5
238
  8
BENZENE
  6
CONTINUOUS
 10
11.59108886706213
 20
1.271225394695762
 30
0.0
 11
12.65523828058396
 21
1.885612737240754
 31
0.0
  0
LINE
  5
239
  8
BENZENE
  6
CONTINUOUS
 10
12.65523828058396
 20
1.885612737240754
 30
0.0
 11
12.65523828058396
 21
3.114387275665763
 31
0.0
  0
LINE
  5
23A
  8
BENZENE
  6
CONTINUOUS
 10
12.65523828058396
 20
3.114387275665763
 30
0.0
 11
11.59108886706213
 21
3.728774471545782
 31
0.0
  0
LINE
  5
23B
  8
BENZENE
  6
CONTINUOUS
 10
11.59108886706213
 20
3.728774471545782
 30
0.0
 11
10.52693828022051
 21
3.114387275665763
 31
0.0
  0
LINE
  5
23C
  8
BENZENE
  6
CONTINUOUS
 10
10.52693828022051
 20
3.114387275665763
 30
0.0
 11
10.52693828022051
 21
1.885612737240754
 31
0.0
  0
LINE
  5
23D
  8
BENZENE
  6
CONTINUOUS
 10
10.52693828022051
 20
1.885612737240754
 30
0.0
 11
11.59108886706213
 21
1.271225394695762
 31
0.0
  0
LINE
  5
23E
  8
BENZENE
  6
CONTINUOUS
 10
8.591088536655278
 20
1.271225394695762
 30
0.0
 11
9.655238536837002
 21
1.885612737240754
 31
0.0
  0
LINE
  5
23F
  8
BENZENE
  6
CONTINUOUS
 10
9.655238536837002
 20
1.885612737240754
 30
0.0
 11
9.655238536837002
 21
3.114387275665763
 31
0.0
  0
LINE
  5
240
  8
BENZENE
  6
CONTINUOUS
 10
9.655238536837002
 20
3.114387275665763
 30
0.0
 11
8.591088536655278
 21
3.728774471545782
 31
0.0
  0
LINE
  5
241
  8
BENZENE
  6
CONTINUOUS
 10
8.591088536655278
 20
3.728774471545782
 30
0.0
 11
7.526938536473553
 21
3.114387275665763
 31
0.0
  0
LINE
  5
242
  8
BENZENE
  6
CONTINUOUS
 10
7.526938536473553
 20
3.114387275665763
 30
0.0
 11
7.526938536473553
 21
1.885612737240754
 31
0.0
  0
LINE
  5
243
  8
BENZENE
  6
CONTINUOUS
 10
7.526938536473553
 20
1.885612737240754
 30
0.0
 11
8.591088536655278
 21
1.271225394695762
 31
0.0
  0
LINE
  5
244
  8
BENZENE
  6
CONTINUOUS
 10
5.591088206248427
 20
1.271225394695762
 30
0.0
 11
6.655238206430152
 21
1.885612737240754
 31
0.0
  0
LINE
  5
245
  8
BENZENE
  6
CONTINUOUS
 10
6.655238206430152
 20
1.885612737240754
 30
0.0
 11
6.655238206430152
 21
3.114387275665763
 31
0.0
  0
LINE
  5
246
  8
BENZENE
  6
CONTINUOUS
 10
6.655238206430152
 20
3.114387275665763
 30
0.0
 11
5.591088206248427
 21
3.728774471545782
 31
0.0
  0
LINE
  5
247
  8
BENZENE
  6
CONTINUOUS
 10
5.591088206248427
 20
3.728774471545782
 30
0.0
 11
4.526938499396648
 21
3.114387275665763
 31
0.0
  0
LINE
  5
248
  8
BENZENE
  6
CONTINUOUS
 10
4.526938499396648
 20
3.114387275665763
 30
0.0
 11
4.526938499396648
 21
1.885612737240754
 31
0.0
  0
LINE
  5
249
  8
BENZENE
  6
CONTINUOUS
 10
4.526938499396648
 20
1.885612737240754
 30
0.0
 11
5.591088206248427
 21
1.271225394695762
 31
0.0
  0
LINE
  5
24A
  8
0
  6
CONTINUOUS
 62
     7
 10
17.09108869059483
 20
34.99999994368065
 30
0.0
 11
0.0910883827157214
 21
34.99999994368065
 31
0.0
  0
LINE
  5
24B
  8
0
  6
CONTINUOUS
 62
     7
 10
17.09108869059483
 20
0.0
 30
0.0
 11
17.09108869059483
 21
34.99999994368065
 31
0.0
  0
LINE
  5
24C
  8
0
  6
CONTINUOUS
 62
     7
 10
0.0910883827157214
 20
0.0
 30
0.0
 11
17.09108869059483
 21
0.0
 31
0.0
  0
LINE
  5
24D
  8
0
  6
CONTINUOUS
 62
     7
 10
0.0910883827157214
 20
34.99999994368065
 30
0.0
 11
0.0910883827157214
 21
0.0
 31
0.0
  0
CIRCLE
  5
2D2
  8
SM_HOLE
 10
2.591088462501467
 20
33.54127366899505
 30
0.0
 40
0.0625
  0
CIRCLE
  5
2D6
  8
SM_HOLE
 10
2.591088462501467
 20
31.45872723211453
 30
0.0
 40
0.0625
  0
CIRCLE
  5
48F
  8
SM_HOLE
 10
5.591088462501467
 20
33.54127366899505
 30
0.0
 40
0.0625
  0
CIRCLE
  5
490
  8
SM_HOLE
 10
5.591088462501467
 20
31.45872723211453
 30
0.0
 40
0.0625
  0
CIRCLE
  5
491
  8
SM_HOLE
 10
8.591088462501467
 20
33.54127366899505
 30
0.0
 40
0.0625
  0
CIRCLE
  5
492
  8
SM_HOLE
 10
8.591088462501467
 20
31.45872723211453
 30
0.0
 40
0.0625
  0
CIRCLE
  5
493
  8
SM_HOLE
 10
11.59108846250147
 20
33.54127366899505
 30
0.0
 40
0.0625
  0
CIRCLE
  5
494
  8
SM_HOLE
 10
11.59108846250147
 20
31.45872723211454
 30
0.0
 40
0.0625
  0
CIRCLE
  5
495
  8
SM_HOLE
 10
14.59108846250147
 20
33.54127366899505
 30
0.0
 40
0.0625
  0
CIRCLE
  5
496
  8
SM_HOLE
 10
14.59108846250147
 20
31.45872723211454
 30
0.0
 40
0.0625
  0
CIRCLE
  5
497
  8
SM_HOLE
 10
2.591088462501468
 20
30.54127366899505
 30
0.0
 40
0.0625
  0
CIRCLE
  5
498
  8
SM_HOLE
 10
2.591088462501468
 20
28.45872723211453
 30
0.0
 40
0.0625
  0
CIRCLE
  5
499
  8
SM_HOLE
 10
5.591088462501468
 20
30.54127366899505
 30
0.0
 40
0.0625
  0
CIRCLE
  5
49A
  8
SM_HOLE
 10
5.591088462501468
 20
28.45872723211453
 30
0.0
 40
0.0625
  0
CIRCLE
  5
49B
  8
SM_HOLE
 10
8.591088462501467
 20
30.54127366899505
 30
0.0
 40
0.0625
  0
CIRCLE
  5
49C
  8
SM_HOLE
 10
8.591088462501467
 20
28.45872723211453
 30
0.0
 40
0.0625
  0
CIRCLE
  5
49D
  8
SM_HOLE
 10
11.59108846250147
 20
30.54127366899506
 30
0.0
 40
0.0625
  0
CIRCLE
  5
49E
  8
SM_HOLE
 10
11.59108846250147
 20
28.45872723211454
 30
0.0
 40
0.0625
  0
CIRCLE
  5
49F
  8
SM_HOLE
 10
14.59108846250147
 20
30.54127366899506
 30
0.0
 40
0.0625
  0
CIRCLE
  5
4A0
  8
SM_HOLE
 10
14.59108846250147
 20
28.45872723211454
 30
0.0
 40
0.0625
  0
CIRCLE
  5
4A1
  8
SM_HOLE
 10
2.591088462501469
 20
27.54127366899505
 30
0.0
 40
0.0625
  0
CIRCLE
  5
4A2
  8
SM_HOLE
 10
2.591088462501469
 20
25.45872723211453
 30
0.0
 40
0.0625
  0
CIRCLE
  5
4A3
  8
SM_HOLE
 10
5.591088462501469
 20
27.54127366899505
 30
0.0
 40
0.0625
  0
CIRCLE
  5
4A4
  8
SM_HOLE
 10
5.591088462501469
 20
25.45872723211453
 30
0.0
 40
0.0625
  0
CIRCLE
  5
4A5
  8
SM_HOLE
 10
8.59108846250147
 20
27.54127366899505
 30
0.0
 40
0.0625
  0
CIRCLE
  5
4A6
  8
SM_HOLE
 10
8.59108846250147
 20
25.45872723211453
 30
0.0
 40
0.0625
  0
CIRCLE
  5
4A7
  8
SM_HOLE
 10
11.59108846250147
 20
27.54127366899505
 30
0.0
 40
0.0625
  0
CIRCLE
  5
4A8
  8
SM_HOLE
 10
11.59108846250147
 20
25.45872723211453
 30
0.0
 40
0.0625
  0
CIRCLE
  5
4A9
  8
SM_HOLE
 10
14.59108846250147
 20
27.54127366899506
 30
0.0
 40
0.0625
  0
CIRCLE
  5
4AA
  8
SM_HOLE
 10
14.59108846250147
 20
25.45872723211454
 30
0.0
 40
0.0625
  0
CIRCLE
  5
4AB
  8
SM_HOLE
 10
2.59108846250147
 20
24.54127366899505
 30
0.0
 40
0.0625
  0
CIRCLE
  5
4AC
  8
SM_HOLE
 10
2.59108846250147
 20
22.45872723211453
 30
0.0
 40
0.0625
  0
CIRCLE
  5
4AD
  8
SM_HOLE
 10
5.591088462501469
 20
24.54127366899505
 30
0.0
 40
0.0625
  0
CIRCLE
  5
4AE
  8
SM_HOLE
 10
5.591088462501469
 20
22.45872723211453
 30
0.0
 40
0.0625
  0
CIRCLE
  5
4AF
  8
SM_HOLE
 10
8.59108846250147
 20
24.54127366899505
 30
0.0
 40
0.0625
  0
CIRCLE
  5
4B0
  8
SM_HOLE
 10
8.59108846250147
 20
22.45872723211453
 30
0.0
 40
0.0625
  0
CIRCLE
  5
4B1
  8
SM_HOLE
 10
11.59108846250147
 20
24.54127366899505
 30
0.0
 40
0.0625
  0
CIRCLE
  5
4B2
  8
SM_HOLE
 10
11.59108846250147
 20
22.45872723211453
 30
0.0
 40
0.0625
  0
CIRCLE
  5
4B3
  8
SM_HOLE
 10
14.59108846250147
 20
24.54127366899506
 30
0.0
 40
0.0625
  0
CIRCLE
  5
4B4
  8
SM_HOLE
 10
14.59108846250147
 20
22.45872723211454
 30
0.0
 40
0.0625
  0
CIRCLE
  5
4B5
  8
SM_HOLE
 10
2.591088462501471
 20
21.54127366899505
 30
0.0
 40
0.0625
  0
CIRCLE
  5
4B6
  8
SM_HOLE
 10
2.591088462501471
 20
19.45872723211453
 30
0.0
 40
0.0625
  0
CIRCLE
  5
4B7
  8
SM_HOLE
 10
5.591088462501471
 20
21.54127366899505
 30
0.0
 40
0.0625
  0
CIRCLE
  5
4B8
  8
SM_HOLE
 10
5.591088462501471
 20
19.45872723211453
 30
0.0
 40
0.0625
  0
CIRCLE
  5
4B9
  8
SM_HOLE
 10
8.591088462501471
 20
21.54127366899505
 30
0.0
 40
0.0625
  0
CIRCLE
  5
4BA
  8
SM_HOLE
 10
8.591088462501471
 20
19.45872723211453
 30
0.0
 40
0.0625
  0
CIRCLE
  5
4BB
  8
SM_HOLE
 10
11.59108846250147
 20
21.54127366899505
 30
0.0
 40
0.0625
  0
CIRCLE
  5
4BC
  8
SM_HOLE
 10
11.59108846250147
 20
19.45872723211453
 30
0.0
 40
0.0625
  0
CIRCLE
  5
4BD
  8
SM_HOLE
 10
14.59108846250147
 20
21.54127366899506
 30
0.0
 40
0.0625
  0
CIRCLE
  5
4BE
  8
SM_HOLE
 10
14.59108846250147
 20
19.45872723211454
 30
0.0
 40
0.0625
  0
CIRCLE
  5
4BF
  8
SM_HOLE
 10
2.591088462501471
 20
18.54127366899505
 30
0.0
 40
0.0625
  0
CIRCLE
  5
4C0
  8
SM_HOLE
 10
2.591088462501471
 20
16.45872723211453
 30
0.0
 40
0.0625
  0
CIRCLE
  5
4C1
  8
SM_HOLE
 10
5.591088462501471
 20
18.54127366899505
 30
0.0
 40
0.0625
  0
CIRCLE
  5
4C2
  8
SM_HOLE
 10
5.591088462501471
 20
16.45872723211453
 30
0.0
 40
0.0625
  0
CIRCLE
  5
4C3
  8
SM_HOLE
 10
8.591088462501471
 20
18.54127366899505
 30
0.0
 40
0.0625
  0
CIRCLE
  5
4C4
  8
SM_HOLE
 10
8.591088462501471
 20
16.45872723211453
 30
0.0
 40
0.0625
  0
CIRCLE
  5
4C5
  8
SM_HOLE
 10
11.59108846250147
 20
18.54127366899505
 30
0.0
 40
0.0625
  0
CIRCLE
  5
4C6
  8
SM_HOLE
 10
11.59108846250147
 20
16.45872723211453
 30
0.0
 40
0.0625
  0
CIRCLE
  5
4C7
  8
SM_HOLE
 10
14.59108846250147
 20
18.54127366899506
 30
0.0
 40
0.0625
  0
CIRCLE
  5
4C8
  8
SM_HOLE
 10
14.59108846250147
 20
16.45872723211454
 30
0.0
 40
0.0625
  0
CIRCLE
  5
4C9
  8
SM_HOLE
 10
2.591088462501472
 20
15.54127366899505
 30
0.0
 40
0.0625
  0
CIRCLE
  5
4CA
  8
SM_HOLE
 10
2.591088462501472
 20
13.45872723211453
 30
0.0
 40
0.0625
  0
CIRCLE
  5
4CB
  8
SM_HOLE
 10
5.591088462501472
 20
15.54127366899505
 30
0.0
 40
0.0625
  0
CIRCLE
  5
4CC
  8
SM_HOLE
 10
5.591088462501472
 20
13.45872723211453
 30
0.0
 40
0.0625
  0
CIRCLE
  5
4CD
  8
SM_HOLE
 10
8.591088462501471
 20
15.54127366899505
 30
0.0
 40
0.0625
  0
CIRCLE
  5
4CE
  8
SM_HOLE
 10
8.591088462501471
 20
13.45872723211453
 30
0.0
 40
0.0625
  0
CIRCLE
  5
4CF
  8
SM_HOLE
 10
11.59108846250147
 20
15.54127366899506
 30
0.0
 40
0.0625
  0
CIRCLE
  5
4D0
  8
SM_HOLE
 10
11.59108846250147
 20
13.45872723211454
 30
0.0
 40
0.0625
  0
CIRCLE
  5
4D1
  8
SM_HOLE
 10
14.59108846250147
 20
15.54127366899506
 30
0.0
 40
0.0625
  0
CIRCLE
  5
4D2
  8
SM_HOLE
 10
14.59108846250147
 20
13.45872723211454
 30
0.0
 40
0.0625
  0
CIRCLE
  5
4D3
  8
SM_HOLE
 10
2.591088462501473
 20
12.54127366899505
 30
0.0
 40
0.0625
  0
CIRCLE
  5
4D4
  8
SM_HOLE
 10
2.591088462501473
 20
10.45872723211453
 30
0.0
 40
0.0625
  0
CIRCLE
  5
4D5
  8
SM_HOLE
 10
5.591088462501473
 20
12.54127366899505
 30
0.0
 40
0.0625
  0
CIRCLE
  5
4D6
  8
SM_HOLE
 10
5.591088462501473
 20
10.45872723211453
 30
0.0
 40
0.0625
  0
CIRCLE
  5
4D7
  8
SM_HOLE
 10
8.591088462501473
 20
12.54127366899505
 30
0.0
 40
0.0625
  0
CIRCLE
  5
4D8
  8
SM_HOLE
 10
8.591088462501473
 20
10.45872723211453
 30
0.0
 40
0.0625
  0
CIRCLE
  5
4D9
  8
SM_HOLE
 10
11.59108846250147
 20
12.54127366899506
 30
0.0
 40
0.0625
  0
CIRCLE
  5
4DA
  8
SM_HOLE
 10
11.59108846250147
 20
10.45872723211454
 30
0.0
 40
0.0625
  0
CIRCLE
  5
4DB
  8
SM_HOLE
 10
14.59108846250147
 20
12.54127366899506
 30
0.0
 40
0.0625
  0
CIRCLE
  5
4DC
  8
SM_HOLE
 10
14.59108846250147
 20
10.45872723211454
 30
0.0
 40
0.0625
  0
CIRCLE
  5
4DD
  8
SM_HOLE
 10
2.591088462501473
 20
9.541273668995053
 30
0.0
 40
0.0625
  0
CIRCLE
  5
4DE
  8
SM_HOLE
 10
2.591088462501473
 20
7.458727232114533
 30
0.0
 40
0.0625
  0
CIRCLE
  5
4DF
  8
SM_HOLE
 10
5.591088462501473
 20
9.541273668995053
 30
0.0
 40
0.0625
  0
CIRCLE
  5
4E0
  8
SM_HOLE
 10
5.591088462501473
 20
7.458727232114533
 30
0.0
 40
0.0625
  0
CIRCLE
  5
4E1
  8
SM_HOLE
 10
8.591088462501475
 20
9.541273668995053
 30
0.0
 40
0.0625
  0
CIRCLE
  5
4E2
  8
SM_HOLE
 10
8.591088462501475
 20
7.458727232114533
 30
0.0
 40
0.0625
  0
CIRCLE
  5
4E3
  8
SM_HOLE
 10
11.59108846250147
 20
9.541273668995057
 30
0.0
 40
0.0625
  0
CIRCLE
  5
4E4
  8
SM_HOLE
 10
11.59108846250147
 20
7.458727232114537
 30
0.0
 40
0.0625
  0
CIRCLE
  5
4E5
  8
SM_HOLE
 10
14.59108846250147
 20
9.541273668995057
 30
0.0
 40
0.0625
  0
CIRCLE
  5
4E6
  8
SM_HOLE
 10
14.59108846250147
 20
7.458727232114537
 30
0.0
 40
0.0625
  0
CIRCLE
  5
4E7
  8
SM_HOLE
 10
2.591088462501474
 20
6.541273668995053
 30
0.0
 40
0.0625
  0
CIRCLE
  5
4E8
  8
SM_HOLE
 10
2.591088462501474
 20
4.458727232114533
 30
0.0
 40
0.0625
  0
CIRCLE
  5
4E9
  8
SM_HOLE
 10
5.591088462501475
 20
6.541273668995053
 30
0.0
 40
0.0625
  0
CIRCLE
  5
4EA
  8
SM_HOLE
 10
5.591088462501475
 20
4.458727232114533
 30
0.0
 40
0.0625
  0
CIRCLE
  5
4EB
  8
SM_HOLE
 10
8.591088462501475
 20
6.541273668995053
 30
0.0
 40
0.0625
  0
CIRCLE
  5
4EC
  8
SM_HOLE
 10
8.591088462501475
 20
4.458727232114533
 30
0.0
 40
0.0625
  0
CIRCLE
  5
4ED
  8
SM_HOLE
 10
11.59108846250147
 20
6.541273668995057
 30
0.0
 40
0.0625
  0
CIRCLE
  5
4EE
  8
SM_HOLE
 10
11.59108846250147
 20
4.458727232114537
 30
0.0
 40
0.0625
  0
CIRCLE
  5
4EF
  8
SM_HOLE
 10
14.59108846250147
 20
6.541273668995057
 30
0.0
 40
0.0625
  0
CIRCLE
  5
4F0
  8
SM_HOLE
 10
14.59108846250147
 20
4.458727232114537
 30
0.0
 40
0.0625
  0
CIRCLE
  5
4F1
  8
SM_HOLE
 10
2.591088462501475
 20
3.541273668995053
 30
0.0
 40
0.0625
  0
CIRCLE
  5
4F2
  8
SM_HOLE
 10
2.591088462501475
 20
1.458727232114533
 30
0.0
 40
0.0625
  0
CIRCLE
  5
4F3
  8
SM_HOLE
 10
5.591088462501475
 20
3.541273668995053
 30
0.0
 40
0.0625
  0
CIRCLE
  5
4F4
  8
SM_HOLE
 10
5.591088462501475
 20
1.458727232114533
 30
0.0
 40
0.0625
  0
CIRCLE
  5
4F5
  8
SM_HOLE
 10
8.591088462501475
 20
3.541273668995053
 30
0.0
 40
0.0625
  0
CIRCLE
  5
4F6
  8
SM_HOLE
 10
8.591088462501475
 20
1.458727232114533
 30
0.0
 40
0.0625
  0
CIRCLE
  5
4F7
  8
SM_HOLE
 10
11.59108846250147
 20
3.541273668995057
 30
0.0
 40
0.0625
  0
CIRCLE
  5
4F8
  8
SM_HOLE
 10
11.59108846250147
 20
1.458727232114537
 30
0.0
 40
0.0625
  0
CIRCLE
  5
4F9
  8
SM_HOLE
 10
14.59108846250147
 20
3.541273668995057
 30
0.0
 40
0.0625
  0
CIRCLE
  5
4FA
  8
SM_HOLE
 10
14.59108846250147
 20
1.458727232114537
 30
0.0
 40
0.0625
  0
ENDSEC
  0
EOF
